<svg xmlns="http://www.w3.org/2000/svg" viewBox="0 0 500 500"><g id="freepik--background-complete--inject-3"><path d="M468.8,149c.59-4.28-5.45-7.8-10-8.16-2.17-.18-4.41.15-6.46-.56-4.44-1.55-6.22-7.28-10.55-9.11-3.24-1.37-7-.15-10.11,1.43s-6.24,3.57-9.75,3.79c-3.05.2-6.36-.93-9,.56-2,1.11-3,3.4-4.87,4.75s-4.13,1.61-6.36,1.73-4.53.14-6.56,1.07-3.7,3.07-3.28,5.26Z" style="fill:#ebebeb"></path><path d="M248.53,156.2c-1-2.34-1.28-4.93-2-7.39a4.91,4.91,0,0,0-2.23-3.32,21,21,0,0,0-2.66-.6c-3.13-.94-4-5.3-6.94-6.66a10.15,10.15,0,0,0-3-.62c-4-.47-8.07-1.84-10.56-5a18.91,18.91,0,0,0-2.45-3c-1-.82-2.59-1.17-3.58-.33.84,1.67,1.66,3.35,2.48,5a13,13,0,0,0,2.78,4.17,4.47,4.47,0,0,0,4.67,1,3.16,3.16,0,0,1,1.57-.55,1.71,1.71,0,0,1,1,.66c2.16,2.39,1.46,6.35-.65,8.8s-5.21,3.7-8.2,4.88a6.37,6.37,0,0,1-3.35.66c-2.07-.39-3.18-2.65-3.78-4.67-1.36-4.49-2-9.36-4.79-13.14a16.69,16.69,0,0,1-2.52-3.66c-.57-1.51-.44-3.27-1.34-4.59s-2.93-2.19-3.07-3.87a3.07,3.07,0,0,1,2-2.71c1.07-.52,2.28-.67,3.38-1.12.44-.18.92-.5.94-1,0-.7-1-1-1.22-1.64s.48-1.42.8-2.14c.69-1.64-1-3.3-2.68-4s-3.63-1.15-4.4-2.76a9.63,9.63,0,0,1-.53-2.39,5.25,5.25,0,0,0-3.92-4.32c-2.06-.33-4.33,1.49-4,3.53.2,1.12,1,2,1.49,3s.34,2.58-.74,2.91c-1.75.54-3.44-2.67-4.92-1.57.61,2.06,1.19,4.12,1.79,6.19-2.3,1.17-5.07-.95-6.05-3.36s-1-5.14-2.2-7.45-4.33-4.05-6.34-2.41c-.1,3,3.83,4.18,5.57,6.59,1.26,1.74,1.08,4.57-.78,5.68s-4.77-.82-4.07-2.85c.25-.7.84-1.29.9-2,.07-.94-.71-1.69-1.43-2.29-1.13-1-2.25-1.89-3.37-2.83a7.17,7.17,0,0,0-2.39-1.51c-2.31-.67-4.62,1.21-5.84,3.27s-1.91,4.5-3.6,6.22c-2.43,2.51-7,2.66-9.3,0s-1.13-7.55,2.24-8.51c1.27-.35,2.88-.31,3.55-1.43,1.17-2-2.18-4.54-1-6.55.89-1.54,3.23-.83,4.94-1.35s2.65-2.23,3.65-3.7,2.54-2.93,4.28-2.55a5.39,5.39,0,0,1,.19-3,1.86,1.86,0,0,1,2.56-.94c-.85,1.41.17,3.36,1.66,4.07a9.11,9.11,0,0,0,4.87.35c1.64-.2,3.69-.8,3.83-2.44a5.75,5.75,0,0,1,.05-1.61c.72-2,4.33.74,5.72-.84.8-.82-.08-2.27-1.2-2.54s-2.26.13-3.4.17-2.53-.56-2.58-1.69,1.21-1.93,1.34-3c.22-1.88-3-2.36-4.08-.84s-.72,3.61-.39,5.47.52,4.05-.85,5.36c-.59.88-2.11.42-2.61-.52a7.65,7.65,0,0,1-.49-3.13c-.08-1.07-.55-2.28-1.59-2.56a5.66,5.66,0,0,0-2.22.25c-2.91.35-4.94-3.41-4-6.19s3.55-4.59,6.11-6c1.87-1,4.2-2,6.06-1,.87.48,1.47,1.32,2.32,1.82,1.48.87,3.3.55,5,.59a11.57,11.57,0,0,1,7.28,2.82c.75.69,1.46,1.83.87,2.65s-2.46,1-2.14,2.07a3.62,3.62,0,0,0,4.55-2.93,3.08,3.08,0,0,1,1.76,2.48,5.42,5.42,0,0,1,8,.65,6.91,6.91,0,0,0,1.47,1.9c.67.43,1.84.21,1.92-.57a1.57,1.57,0,0,0-.13-.74c-.4-1.14-.82-2.26-1.22-3.38,1.56-.84,3.4.47,4.45,1.87,3.92,5.24,6.71,2.1,12.23,3,3.74.57,5.38,3,7.49,5.86,6.45,8.9,15,16.2,20.86,25.5.62,1,1.19,2,1.73,3l-.29-.75a103.45,103.45,0,0,0-8.53-17.35c-.72-1.18-1.46-2.33-2.21-3.47-.47-.7-.95-1.42-1.44-2.11-.62-.9-1.27-1.77-1.92-2.64-.52-.7-1-1.39-1.58-2.06q-.56-.7-1.14-1.41c-.4-.53-.83-1-1.3-1.57l-1.41-1.62a4.15,4.15,0,0,0-.45-.5c-.48-.57-1-1.13-1.52-1.68a.75.75,0,0,0-.15-.16c-.14-.16-.29-.31-.44-.46-.42-.47-.87-.92-1.3-1.37-.72-.74-1.46-1.47-2.21-2.17s-1.26-1.21-1.91-1.8-1.14-1-1.72-1.53-1.14-1-1.73-1.48-1.42-1.19-2.16-1.77h0q-3-2.45-6.26-4.6l-1.59-1.07c-.54-.37-1.09-.71-1.63-1s-1.08-.69-1.64-1-1.1-.67-1.65-1-.89-.52-1.34-.76a7.87,7.87,0,0,0-.69-.38c-.95-.54-1.92-1.06-2.89-1.54-.49-.25-1-.5-1.47-.74s-1.26-.62-1.9-.9l-.28-.14c-.57-.26-1.14-.53-1.72-.78-.82-.35-1.64-.71-2.46-1s-1.88-.77-2.83-1.12-2.11-.79-3.18-1.14-2.16-.72-3.25-1.05-2.17-.64-3.28-.94c-2.17-.59-4.38-1.11-6.61-1.56a.7.7,0,0,1-.12,0c-.85-.17-1.7-.34-2.56-.47l-.16,0c-.37-.07-.76-.14-1.14-.19-1.59-.26-3.2-.48-4.82-.67a5.61,5.61,0,0,0-.59-.06c-.47-.07-.94-.1-1.42-.15-1.07-.1-2.14-.19-3.23-.25s-2.26-.14-3.4-.17-2.37-.07-3.56-.07c-3.15,0-6.26.13-9.34.42-.74,0-1.46.12-2.18.2l-2.26.27c-.75.1-1.5.2-2.24.32s-1.49.23-2.24.36-1.29.22-1.93.36c-1.57.3-3.12.63-4.66,1-.72.17-1.44.35-2.16.55l-2.15.59c-1.18.33-2.34.7-3.49,1.07h0l-2.81.95a.13.13,0,0,0-.07,0c-1,.33-1.87.68-2.81,1.05l-.15,0c-.85.34-1.71.69-2.54,1-1.06.43-2.1.9-3.12,1.37s-1.72.8-2.56,1.22l-2.69,1.37-.1.05q-1.29.69-2.55,1.41c-.87.49-1.72,1-2.57,1.52h0c-.8.49-1.59,1-2.38,1.48-.3.18-.58.38-.88.58-.84.54-1.64,1.09-2.46,1.66-1,.69-2,1.4-3,2.12s-1.69,1.29-2.51,1.95A104.76,104.76,0,0,0,73.93,81.56c-1.43,1.58-2.76,3.18-4.07,4.82-1.1,1.41-2.18,2.83-3.2,4.3C65.74,92,64.86,93.27,64,94.6c.86-1.33,1.74-2.64,2.66-3.92l.81-.08a12.52,12.52,0,0,0,4.45-.72,27.4,27.4,0,0,0,3.28-2.54c2.91-2.08,7.68-2.46,8.47-5.94.26-1.18,0-2.45.38-3.57.82-2.09,3.62-2.39,5.86-2.36,1,0,2.07.14,2.51,1a2.4,2.4,0,0,1-.1,1.94,18.16,18.16,0,0,1-7.68,9.44c-2.91,1.78-6.71,3.15-7.52,6.46.4,1.12,2.45,1,2.61,2.21.12.94-1.08,1.42-1.52,2.26-.64,1.22.82,2.71,2.21,2.64s2.54-1.07,3.56-2c3-2.83,6.25-5.88,7.35-9.89.47-1.66.64-3.6,2-4.71a3.28,3.28,0,0,1,5,1.59c1.32-.73,3.38-1.29,4.06.09a6.81,6.81,0,0,1,.29,1.57c.43,2.14,3.36,3.11,3.66,5.27.35,2.5-2.84,3.78-5.34,4.17-2.26.35-4.51.7-6.77,1.07a6.38,6.38,0,0,0-2.82.9,2.2,2.2,0,0,0-.83,2.63,6.68,6.68,0,0,0,1.17,1.21c1.87,1.87.33,5.74-2.31,5.82-.9,0-1.79-.3-2.69-.33-2.68-.12-4.81,2.24-6.08,4.6s-2.23,5.05-4.37,6.66c-3.44,2.59-9.39,2-11.06,6-.67,1.61-.32,3.42,0,5.14s.39,3.62-.62,5-3.56,1.7-4.3.13a3.81,3.81,0,0,1-.1-2.22q.6-3.72,1.17-7.43c.29-1.85.54-3.9-.55-5.41-1.52-2.11-4.94-1.91-6.91-.22s-2.78,4.34-3.33,6.86a29.48,29.48,0,0,1-1.91,6.66h0c-.35,2.08-.64,4.19-.85,6.31s-.37,4.34-.46,6.55a8.89,8.89,0,0,0,.86-.81c1-1.08,3.18-5.69,5.09-3.43a1.73,1.73,0,0,1,0,2.1c-.59.75-1.76.92-2.21,1.74s.22,2.17,1.12,2.81,2,1,2.64,2c1.23,1.76.06,4.42,1.24,6.21,1,1.54,3.2,1.64,5.06,1.84l.63.1c.52-3.68,2.25-6.68,7.27-7.81,6.92-1.58,16,4.16,19.93,9.39,4.35,5.84,6.41,14.1,13.07,17,4.77,2.09,11.55,1.34,13.87,6,2.08,4.18-1.54,8.89-2.09,13.52-.35,3.06.65,6.11.89,9.17s-.69,6.66-3.48,8c-1.56.71-3.52.62-4.77,1.79-2.23,2.11-.4,6.46-2.63,8.57a11.25,11.25,0,0,1-2.83,1.49c-5,2.53-4.87,9.89-2.54,15,.08.18.16.35.25.53a105.83,105.83,0,0,0,54.24,15,105.3,105.3,0,0,0,49.62-12.35h0a104.15,104.15,0,0,0,9.36-5.64,105.28,105.28,0,0,0,13.14-10.44,102.58,102.58,0,0,0,8-8.39c1.77-2,3.45-4.17,5-6.34.82-1.12,1.63-2.24,2.38-3.4A103.67,103.67,0,0,0,253.66,184a102.43,102.43,0,0,0,4-17.92c.32-2.38.57-4.79.73-7.22a6,6,0,0,1-4.25,1.89C251.64,160.67,249.55,158.55,248.53,156.2Z" style="fill:#f5f5f5"></path><path d="M127.67,73.77c-2.1,1.26-3.21,3.62-4.83,5.45s-4.52,3.13-6.42,1.61A4.43,4.43,0,0,1,115,77.72a8,8,0,0,1,1.14-4.85c.91-1.48,2.3-2.65,3.07-4.21s.62-3.85-1-4.58c-.86-.4-1.93-.24-2.69-.8-1.37-1-.39-3.38,1.19-4s3.34-.13,5,0c6.13.39,10.64-3.63,15.25-7,3.58-2.59,11.22-5.66,15.37-3,1.65,1.06,2.3,3.78.74,5-.7.53-1.66.65-2.31,1.25s-.89,1.87-1.34,2.83c-1.16,2.48-4.5,3.38-5.58,5.9-.65,1.51-.36,3.4-1.35,4.71a5.8,5.8,0,0,1-3.44,1.71l-8,1.9A12,12,0,0,0,127.67,73.77Z" style="fill:#ebebeb"></path><path d="M199.13,203.94c-2.65,4-3.14,9-3.87,13.73s-2,9.78-5.64,12.9-10.33,2.93-12.34-1.42c-1.09-2.37-.53-5.16-1.12-7.69-.77-3.3-3.4-5.85-4.65-9-1.06-2.69-1.07-5.66-1.15-8.55-.48-15.8-4.33-32.3-15.09-43.88a10.45,10.45,0,0,0-4.7-3.31,6,6,0,0,0-6.17,2.13c-.87,1.14-1.31,2.6-2.37,3.57-2.3,2.1-6.31.59-7.85-2.11s-1.32-6-1.07-9.14l1-11.54c.17-2,.39-4.17,1.71-5.7,1.88-2.17,5.25-2.27,7.55-4,3-2.26,3.41-6.56,5.31-9.81s7.85-4.63,8.73-1c6.29-13.46,20.19,6.54,28.45,5,2.4-.44,4.75-1.59,7.16-1.26,4.27.6,6.47,5.3,7.92,9.36l7.23,20.2c.92,2.56,2.11,5.41,4.64,6.4,1.95.75,4.21.17,6.17.89,5.19,1.88,3.5,10.05-.67,13.66s-10,5.89-12,11c-1.5,3.88-.31,8.42-1.92,12.26C203.19,199.48,200.77,201.46,199.13,203.94Z" style="fill:#ebebeb"></path><path d="M218.82,208.33c-1.71.24-3.72-.6-5,.53a5.62,5.62,0,0,0-1.22,2.71,5.73,5.73,0,0,1-2.41,3.3,3.61,3.61,0,0,1-3.94-.08,2.66,2.66,0,0,1-.55-3.69c.42-.48,1-.76,1.47-1.2,2.27-2.14.72-6.1,2.44-8.64,1-1.5,2.61-3,3.72-4.54.86-1.17,1.17-2.1,2.75-2.41C223,193,226.07,207.32,218.82,208.33Z" style="fill:#ebebeb"></path><path d="M47.22,149.93c0,.64,0,1.27,0,1.9s0,1,0,1.55c0-.51,0-1,0-1.55S47.21,150.57,47.22,149.93Z" style="fill:#263238"></path><g style="opacity:0.6000000000000001"><path d="M94.05,239.66c.89.61,1.79,1.19,2.7,1.76.64.4,1.28.79,1.93,1.17-.65-.38-1.29-.77-1.93-1.17C95.84,240.85,94.94,240.27,94.05,239.66Z" style="fill:#263238"></path></g><g style="opacity:0.6000000000000001"><path d="M47.28,147.43h0c0,.2,0,.39,0,.59,0,.63,0,1.27,0,1.91,0-.64,0-1.28,0-1.91C47.25,147.82,47.27,147.63,47.28,147.43Z" style="fill:#263238"></path></g><g style="opacity:0.6000000000000001"><path d="M47.21,153.38c0,.52,0,1,0,1.55h0C47.22,154.42,47.22,153.9,47.21,153.38Z" style="fill:#263238"></path></g><path d="M113.79,198.09c.55-4.63,4.17-9.34,2.09-13.52-2.32-4.67-9.1-3.92-13.87-6-6.66-2.93-8.72-11.19-13.07-17-3.9-5.23-13-11-19.93-9.39-5,1.13-6.75,4.13-7.27,7.81l-.63-.1c-1.86-.2-4-.3-5.06-1.84-1.18-1.79,0-4.45-1.24-6.21-.63-.92-1.74-1.32-2.64-2S50.5,148,51.05,147s1.62-1,2.21-1.74a1.71,1.71,0,0,0,0-2.1c-1.9-2.26-4,2.35-5.08,3.43a8.89,8.89,0,0,1-.86.81h0c0,.2,0,.39,0,.59,0,.63,0,1.27,0,1.91s0,1.27,0,1.91,0,1,0,1.54,0,1,0,1.55c0,.25,0,.49,0,.74A105.31,105.31,0,0,0,54,189.22a100.94,100.94,0,0,0,6.46,13.86c1,1.92,2.17,3.81,3.36,5.67,1.47,2.29,3,4.54,4.67,6.7s3.18,4.1,4.9,6q3.54,4,7.48,7.7,3.5,3.26,7.28,6.19c-5.41-14.53-10.53-29.34-19.28-42,8.75,12.66,13.87,27.47,19.28,42h0c1.07.85,2.16,1.66,3.27,2.44.87.63,1.74,1.24,2.63,1.84s1.79,1.19,2.7,1.76c.64.4,1.28.79,1.93,1.17-.09-.18-.17-.35-.25-.53C96.1,237,96,229.59,101,227.06a11.25,11.25,0,0,0,2.83-1.49c2.23-2.11.4-6.46,2.63-8.57,1.25-1.17,3.21-1.08,4.77-1.79,2.79-1.29,3.69-4.87,3.48-8S113.44,201.15,113.79,198.09ZM61.71,170.51c0-1,0-2.14-.05-3.22,0,1.08.07,2.17.05,3.22Zm-5.52-7.21a1.6,1.6,0,0,1-1-.5,2,2,0,0,1-.22-1.12c-.11-1.94-1.66-3.34-3.34-4.44,1.68,1.1,3.23,2.5,3.34,4.44a2,2,0,0,0,.22,1.12,1.6,1.6,0,0,0,1,.5,28.47,28.47,0,0,0,5.37.75A28.47,28.47,0,0,1,56.19,163.3ZM61,179.63a14.32,14.32,0,0,1,0-2.27,14.32,14.32,0,0,0,0,2.27,12.87,12.87,0,0,0,1.45,4.53A12.87,12.87,0,0,1,61,179.63Zm2.24,5.94c.28.46.58.92.89,1.37C63.81,186.49,63.51,186,63.23,185.57Z" style="fill:#ebebeb"></path><path d="M53.83,121c2-1.69,5.39-1.89,6.91.22,1.09,1.51.84,3.56.55,5.41q-.57,3.7-1.17,7.43a3.81,3.81,0,0,0,.1,2.22c.74,1.57,3.31,1.27,4.3-.13s.89-3.33.62-5-.62-3.53,0-5.14c1.67-4,7.62-3.38,11.06-6,2.14-1.61,3.1-4.3,4.37-6.66s3.4-4.72,6.08-4.6c.9,0,1.79.36,2.69.33,2.64-.08,4.18-4,2.31-5.82a6.68,6.68,0,0,1-1.17-1.21,2.2,2.2,0,0,1,.83-2.63,6.38,6.38,0,0,1,2.82-.9c2.26-.37,4.51-.72,6.77-1.07,2.5-.39,5.69-1.67,5.34-4.17-.3-2.16-3.23-3.13-3.66-5.27a6.81,6.81,0,0,0-.29-1.57c-.68-1.38-2.74-.82-4.06-.09a3.28,3.28,0,0,0-5-1.59c-1.34,1.11-1.51,3-2,4.71-1.1,4-4.3,7.06-7.35,9.89-1,.93-2.17,1.94-3.56,2s-2.85-1.42-2.21-2.64c.44-.84,1.64-1.32,1.52-2.26-.16-1.17-2.21-1.09-2.61-2.21.81-3.31,4.61-4.68,7.52-6.46a18.16,18.16,0,0,0,7.68-9.44,2.4,2.4,0,0,0,.1-1.94c-.44-.83-1.56-1-2.51-1-2.24,0-5,.27-5.86,2.36-.43,1.12-.12,2.39-.38,3.57-.79,3.48-5.56,3.86-8.47,5.94a27.4,27.4,0,0,1-3.28,2.54,12.52,12.52,0,0,1-4.45.72l-.81.08C65.74,92,64.86,93.27,64,94.6s-1.68,2.67-2.47,4a105.2,105.2,0,0,0-9.18,20.45q-1.23,3.77-2.17,7.63c-.62,2.58-1.16,5.2-1.59,7.85a29.48,29.48,0,0,0,1.91-6.66C51.05,125.38,51.87,122.73,53.83,121Z" style="fill:#ebebeb"></path><g style="opacity:0.6000000000000001"><path d="M252,114.9c.5,1.34,1,2.69,1.42,4-.45-1.35-.92-2.7-1.42-4,0,0,0,0,0,0h0Z" style="fill:#263238"></path></g><path d="M258.62,150.38c0-1.52-.06-3-.14-4.54s-.2-3-.35-4.48c-.11-1.21-.25-2.39-.42-3.58s-.34-2.51-.55-3.75a105.82,105.82,0,0,0-2.47-11q-.6-2.07-1.26-4.11c-.45-1.35-.92-2.7-1.42-4v0h0c-.54-1-1.11-2-1.73-3-5.87-9.3-14.41-16.6-20.86-25.5-2.11-2.9-3.75-5.29-7.49-5.86-5.52-.85-8.31,2.29-12.23-3-1-1.4-2.89-2.71-4.45-1.87.4,1.12.82,2.24,1.22,3.38a1.57,1.57,0,0,1,.13.74c-.08.78-1.25,1-1.92.57a6.91,6.91,0,0,1-1.47-1.9,5.42,5.42,0,0,0-8-.65,3.08,3.08,0,0,0-1.76-2.48A3.62,3.62,0,0,1,189,78.33c-.32-1,1.51-1.2,2.14-2.07s-.12-2-.87-2.65a11.57,11.57,0,0,0-7.28-2.82c-1.69,0-3.51.28-5-.59-.85-.5-1.45-1.34-2.32-1.82-1.86-1.06-4.19-.09-6.06,1-2.56,1.42-5.21,3.21-6.11,6s1.11,6.54,4,6.19a5.66,5.66,0,0,1,2.22-.25c1,.28,1.51,1.49,1.59,2.56a7.65,7.65,0,0,0,.49,3.13c.5.94,2,1.4,2.61.52,1.37-1.31,1.2-3.5.85-5.36s-.72-3.95.39-5.47,4.3-1,4.08.84c-.13,1.1-1.39,1.9-1.34,3s1.44,1.74,2.58,1.69,2.29-.46,3.4-.17,2,1.72,1.2,2.54c-1.39,1.58-5-1.12-5.72.84a5.75,5.75,0,0,0-.05,1.61c-.14,1.64-2.19,2.24-3.83,2.44a9.11,9.11,0,0,1-4.87-.35c-1.49-.71-2.51-2.66-1.66-4.07a1.86,1.86,0,0,0-2.56.94,5.39,5.39,0,0,0-.19,3c-1.74-.38-3.29,1.09-4.28,2.55s-2,3.18-3.65,3.7-4.05-.19-4.94,1.35c-1.15,2,2.2,4.55,1,6.55-.67,1.12-2.28,1.08-3.55,1.43-3.37,1-4.54,5.88-2.24,8.51s6.87,2.47,9.3,0c1.69-1.72,2.38-4.15,3.6-6.22s3.53-3.94,5.84-3.27a7.17,7.17,0,0,1,2.39,1.51c1.12.94,2.24,1.87,3.37,2.83.72.6,1.5,1.35,1.43,2.29-.06.75-.65,1.34-.9,2-.7,2,2.23,4,4.07,2.85s2-3.94.78-5.68c-1.74-2.41-5.67-3.61-5.57-6.59,2-1.64,5.17.08,6.34,2.41s1.21,5,2.2,7.45,3.75,4.53,6.05,3.36c-.6-2.07-1.18-4.13-1.79-6.19,1.48-1.1,3.17,2.11,4.92,1.57,1.08-.33,1.21-1.87.74-2.91s-1.29-1.91-1.49-3c-.33-2,1.94-3.86,4-3.53a5.25,5.25,0,0,1,3.92,4.32,9.63,9.63,0,0,0,.53,2.39c.77,1.61,2.76,2.09,4.4,2.76s3.37,2.33,2.68,4c-.32.72-1.07,1.4-.8,2.14s1.22.94,1.22,1.64c0,.47-.5.79-.94,1-1.1.45-2.31.6-3.38,1.12a3.07,3.07,0,0,0-2,2.71c.14,1.68,2.13,2.48,3.07,3.87s.77,3.08,1.34,4.59a16.69,16.69,0,0,0,2.52,3.66c2.78,3.78,3.43,8.65,4.79,13.14.6,2,1.71,4.28,3.78,4.67a6.37,6.37,0,0,0,3.35-.66c3-1.18,6.11-2.46,8.2-4.88s2.81-6.41.65-8.8a1.71,1.71,0,0,0-1-.66,3.16,3.16,0,0,0-1.57.55,4.47,4.47,0,0,1-4.67-1,13,13,0,0,1-2.78-4.17c-.82-1.65-1.64-3.33-2.48-5,1-.84,2.56-.49,3.58.33a18.91,18.91,0,0,1,2.45,3c2.49,3.11,6.59,4.48,10.56,5a10.15,10.15,0,0,1,3,.62c3,1.36,3.81,5.72,6.94,6.66a21,21,0,0,1,2.66.6,4.91,4.91,0,0,1,2.23,3.32c.68,2.46.92,5.05,2,7.39s3.11,4.47,5.65,4.5a6,6,0,0,0,4.25-1.89h0c.14-2.31.22-4.62.22-7C258.65,151.35,258.65,150.86,258.62,150.38Z" style="fill:#ebebeb"></path><path d="M199.57,135.29a4.76,4.76,0,0,0-1.55-1.8c-1.64-1.49-3.75-1.29-4.6-.19a4.46,4.46,0,0,0-.34,4.42,4.89,4.89,0,0,0,3,2.83,3.37,3.37,0,0,0,3.75-1.26A3.88,3.88,0,0,0,199.57,135.29Z" style="fill:#ebebeb"></path><path d="M41.53,376.42a34.13,34.13,0,0,0-14.59-5c-2.38-.25-5-.18-6.9,1.27a1.4,1.4,0,0,0-.71,1.26,1.61,1.61,0,0,0,.67.86c5.94,4.52,14.92,5.1,21.53,1.63" style="fill:#e0e0e0"></path><path d="M41.15,376a71.41,71.41,0,0,1-9.42-8.28,23.86,23.86,0,0,1-5.91-10.93,4.4,4.4,0,0,1,.47-3.65C33.8,359,39.7,366.59,41.15,376" style="fill:#e0e0e0"></path><path d="M41.45,376.36A34,34,0,0,1,41.62,364a16.77,16.77,0,0,1,6.59-10.21c1.3,3,.74,6.53-.17,9.7a47.19,47.19,0,0,1-6.54,13.76" style="fill:#e0e0e0"></path><path d="M48.81,389.55c-4.47.55-8.36,2.9-11.7,5.92A22.17,22.17,0,0,0,30.42,407c4.38-.27,8.1-3.36,10.8-6.83s4.57-7.27,7.53-10.51" style="fill:#e0e0e0"></path><path d="M50.41,391.66a28.84,28.84,0,0,1,3.33-27.29c2.55,9.06,1.61,19.29-3.33,27.29" style="fill:#e0e0e0"></path><path d="M60.14,403.24a20.9,20.9,0,0,0-20,11.49c-.25.49-.47,1.12-.14,1.56a1.49,1.49,0,0,0,1.33.39c3.93-.25,7.41-2.62,10.29-5.31s5.38-5.81,8.55-8.14" style="fill:#e0e0e0"></path><path d="M59.83,402.61a37,37,0,0,1-.37-20.75c.73-2.67,1.95-5.48,4.42-6.74a.68.68,0,0,1,1.11.38,12.49,12.49,0,0,1,1,5.95,37.24,37.24,0,0,1-.93,6c-.78,3.69-1.19,7.64-3.21,10.82a23.75,23.75,0,0,0-1.29,2.38c-.38.81-.38,1.09-.73,1.73" style="fill:#e0e0e0"></path><path d="M85.57,406.45c-1.9-7.26.12-16.05,4.69-22,.34-.44.79-.91,1.34-.86.84.08,1.06,1.2,1,2.05a39.77,39.77,0,0,1-7.05,20.81" style="fill:#e0e0e0"></path><path d="M87.9,408c8.81,2.29,18.92.06,26.26-5.35A21.26,21.26,0,0,0,99.94,401c-4.75,1.09-9.09,3.21-12,7.09" style="fill:#e0e0e0"></path><path d="M89.85,403.2c4.94-8,14.41-13.3,23.84-13.78-1.09,3.84-4.24,6.82-7.8,8.62s-7.53,2.59-11.44,3.35c-1.52.29-3.61.62-4.6,1.81" style="fill:#e0e0e0"></path><path d="M86.06,379.76a68.53,68.53,0,0,0,3-14c.37-4.76-.31-9.72-2.78-13.8-4.61,8.92-5.08,19.35-.4,28.24" style="fill:#e0e0e0"></path><path d="M101.59,371.91c5.4-9.8,16.4-17.63,27.53-18.73-4.29,10.7-16,19-27.53,18.73" style="fill:#e0e0e0"></path><path d="M98.2,373.83c8,1.23,14.89,6.37,22.41,9.48a10,10,0,0,0,5.07,1,4,4,0,0,0,2.48-7,10.88,10.88,0,0,0-3.68-2.23c-8.19-3.41-17-3.49-25.59-1.43" style="fill:#e0e0e0"></path><path d="M93.54,379.48c1.82.52,2.45,1.46,3.89,2.69a42,42,0,0,0,17,8.73c.64.16,1.5.22,1.82-.36s-.08-1.14-.44-1.59a23.38,23.38,0,0,0-10.26-7c-3.93-1.46-7.32-3.22-12-2.84" style="fill:#e0e0e0"></path><path d="M88.29,345.4A32.14,32.14,0,0,0,113,353.79a1.67,1.67,0,0,0,1.12-.4c.62-.68-.12-1.72-.84-2.28-7.25-5.65-16-8-24.94-5.71" style="fill:#e0e0e0"></path><path d="M94.52,343.12a34.37,34.37,0,0,1,30.77-5.07,24.38,24.38,0,0,1-14.66,6.43,46.11,46.11,0,0,1-16.11-1.36" style="fill:#e0e0e0"></path><path d="M92,327.47c-.71-7.24-.25-13-.75-20.22,0-.58-.16-1.28-.71-1.49-.75-.29-1.38.64-1.63,1.41A23.17,23.17,0,0,0,92,327.31" style="fill:#e0e0e0"></path><path d="M91.52,328.27a42.63,42.63,0,0,0,12-11.65c2.37-3.24,4.36-7.13,3.83-11.1a11.47,11.47,0,0,0-8.65,4.29,24.24,24.24,0,0,0-4.41,8.87c-1,3.18-1.63,6.46-2.76,9.59" style="fill:#e0e0e0"></path><path d="M103.3,325a96.69,96.69,0,0,0,29.5-17.39c-3.52-1.42-7.56-.57-11.08.85-8,3.25-14.63,8.73-18.57,16.47" style="fill:#e0e0e0"></path><path d="M94.83,332.22c5.45.6,11,1,16.39.08s10.33-3,15.29-5.08a1.78,1.78,0,0,0,1-.79,1.19,1.19,0,0,0-.38-1.3,3.14,3.14,0,0,0-1.3-.62c-5.39-1.5-11.22-.8-16.53,1a77.3,77.3,0,0,0-14.51,6.72" style="fill:#e0e0e0"></path><path d="M63.74,345.65c-3.72-7.5-3.48-16.25-.27-24,2.26,3.44,2.54,7.82,2.13,11.92s-1.66,8.32-1.75,12.43" style="fill:#e0e0e0"></path><path d="M48.9,338.16A33.49,33.49,0,0,0,24,348.75a23.18,23.18,0,0,0,13.61-2.52,69.19,69.19,0,0,0,11.66-7.81" style="fill:#e0e0e0"></path><path d="M38.92,334.83c-4.54-.37-8.91-.93-13.27.4a15.9,15.9,0,0,0-10.11,8.58A24,24,0,0,0,28,341.46a72.37,72.37,0,0,0,11-6.63" style="fill:#e0e0e0"></path><path d="M53.69,335c-4.08-2.68-8.27-5.4-13-6.51s-10.26-.29-13.57,3.3c3.84,2.25,8.51,2.52,13,2.52s9.94-.06,14.14,1.43" style="fill:#e0e0e0"></path><path d="M53.72,335.19c-7-6.85-9.63-19.16-6.82-28.53a43.55,43.55,0,0,1,6.82,28.53" style="fill:#e0e0e0"></path><path d="M72.91,315.78c1.31-3.06,2.24-6.28,3.42-9.39a26.88,26.88,0,0,1,4.88-8.65,12.81,12.81,0,0,1,8.65-4.48,34.82,34.82,0,0,1-16.78,22.56" style="fill:#e0e0e0"></path><path d="M69.43,319.82c-2.17-3-4.69-7.07-7.64-9.3s-6.8-3.6-10.41-2.74a24.21,24.21,0,0,0,18.05,12" style="fill:#e0e0e0"></path><path d="M70.13,316a51.35,51.35,0,0,1-3.44-11.15,17.38,17.38,0,0,1,1.74-11.34c3.83,7.24,5.07,15,1.89,22.57" style="fill:#e0e0e0"></path><path d="M72.94,293.54c2.17-7.18,8.75-12.47,15.84-14.89a6,6,0,0,1,2.78-.42,2.4,2.4,0,0,1,2,1.71c.26,1.22-.75,2.31-1.7,3.13a54,54,0,0,1-19,10.47" style="fill:#e0e0e0"></path><path d="M73,287.67c.28-4.63.57-9.33,2.07-13.72s4.41-8.5,8.63-10.42c.72,4.68-1.34,9.33-3.83,13.35s-5.49,7.82-7,12.31" style="fill:#e0e0e0"></path><path d="M72.91,290.85c-1.8-5.23-2-11.88-5.11-16.43-2.19-3.19-5.7-5.36-7.59-8.74a13.32,13.32,0,0,0,.44,9.92,28.52,28.52,0,0,0,5.8,8.29c2.32,2.48,4.3,4.34,6.46,7" style="fill:#e0e0e0"></path><path d="M72.94,444.94c-.14,0-.26-34.91-.27-77.95s.1-78,.24-78,.26,34.9.27,78S73.08,444.94,72.94,444.94Z" style="fill:#e0e0e0"></path><path d="M103.44,340.38a6.58,6.58,0,0,1-1.31.5l-3.61,1.21c-3,1-7.23,2.54-11.77,4.4S78,350,75.6,352.08a8.25,8.25,0,0,0-2.24,3c-.34.82-.41,1.33-.45,1.32s0-.13,0-.37a5.4,5.4,0,0,1,.26-1,7.88,7.88,0,0,1,2.19-3.16,19.62,19.62,0,0,1,4.83-3c1.94-.9,4.08-1.85,6.36-2.78,4.55-1.87,8.77-3.32,11.85-4.27,1.54-.49,2.8-.84,3.67-1.07A8,8,0,0,1,103.44,340.38Z" style="fill:#e0e0e0"></path><path d="M113.44,315.82s-.11.15-.37.4l-1.12,1-4.18,3.8L93.86,333.46c-5.44,4.84-10.13,9.46-13.38,12.93-1.63,1.74-2.92,3.18-3.79,4.19l-1,1.15a2.58,2.58,0,0,1-.38.38,2.43,2.43,0,0,1,.3-.44c.21-.28.52-.7.94-1.22.83-1.05,2.07-2.52,3.67-4.3a179,179,0,0,1,13.31-13.07c5.45-4.82,10.41-9.15,14-12.28l4.28-3.68,1.19-1A2.51,2.51,0,0,1,113.44,315.82Z" style="fill:#e0e0e0"></path><path d="M88,338.38c-.14-.07,1-2.69,2.13-6s1.67-6.11,1.82-6.09a20.45,20.45,0,0,1-1.35,6.25,39.75,39.75,0,0,1-1.69,4.2A6.77,6.77,0,0,1,88,338.38Z" style="fill:#e0e0e0"></path><path d="M73,359.5a6.57,6.57,0,0,1-.83-1L70,355.78c-1.8-2.33-4.29-5.54-7.08-9.06s-5.36-6.67-7.22-9l-2.19-2.71a5.82,5.82,0,0,1-.75-1,6.49,6.49,0,0,1,.9.9c.56.61,1.35,1.5,2.32,2.62,1.93,2.22,4.54,5.34,7.34,8.87s5.24,6.77,7,9.16c.86,1.19,1.55,2.16,2,2.84A6.29,6.29,0,0,1,73,359.5Z" style="fill:#e0e0e0"></path><path d="M66.29,350.92a12.23,12.23,0,0,1-2.8-5.25,14.89,14.89,0,0,1-.64-5.29l.22,0c-.1.41-.17.62-.21.61s0-.23,0-.64h.22a24.83,24.83,0,0,0,.9,5.15A38.71,38.71,0,0,0,66.29,350.92Z" style="fill:#e0e0e0"></path><path d="M57.65,340.06a8.73,8.73,0,0,0-1.95-1.14,12.94,12.94,0,0,0-5.43-.43,33.64,33.64,0,0,0-5.47.88,17.34,17.34,0,0,1-2.25.54A7.57,7.57,0,0,1,44.7,339a25,25,0,0,1,5.53-1,11.87,11.87,0,0,1,5.6.61A3.35,3.35,0,0,1,57.65,340.06Z" style="fill:#e0e0e0"></path><path d="M55.61,337.42c0,.08-1.14-.45-3-1.09a31.28,31.28,0,0,0-7.48-1.54,31,31,0,0,0-7.62.39c-1.94.35-3.11.71-3.13.63s.27-.16.79-.34a17.7,17.7,0,0,1,2.27-.64A26.62,26.62,0,0,1,52.73,336a17.39,17.39,0,0,1,2.14,1A3.08,3.08,0,0,1,55.61,337.42Z" style="fill:#e0e0e0"></path><path d="M72.91,326.29a59.47,59.47,0,0,1-2.19-7.59A60.45,60.45,0,0,1,69,311a63.84,63.84,0,0,1,2.18,7.6A64,64,0,0,1,72.91,326.29Z" style="fill:#e0e0e0"></path><path d="M73.05,326.29a36.17,36.17,0,0,0-2.43-4.54,19.73,19.73,0,0,0-3.56-3.68c0-.06.59.15,1.38.71a11.31,11.31,0,0,1,2.6,2.68A10.13,10.13,0,0,1,73.05,326.29Z" style="fill:#e0e0e0"></path><path d="M72.94,426.33s-.15-.84-.55-2.32a33,33,0,0,0-2.33-6c-2.41-4.93-6.8-11.18-12.38-17.44-2.76-3.16-5.44-6.13-7.71-9a62.4,62.4,0,0,1-5.52-8,38.51,38.51,0,0,1-2.79-5.91c-.26-.73-.44-1.3-.55-1.69a2.52,2.52,0,0,1-.14-.6c.05,0,.3.79.87,2.22a44.26,44.26,0,0,0,2.91,5.8,67.11,67.11,0,0,0,5.58,7.84c2.28,2.83,5,5.79,7.73,8.95,5.6,6.27,10,12.6,12.32,17.61a30,30,0,0,1,2.2,6.15c.16.76.27,1.35.31,1.75A2.64,2.64,0,0,1,72.94,426.33Z" style="fill:#e0e0e0"></path><path d="M100.51,395.2a14.83,14.83,0,0,1-1.45.81,30.93,30.93,0,0,0-3.75,2.48A43.19,43.19,0,0,0,90.39,403c-1.72,1.83-3.5,3.95-5.32,6.22-3.63,4.55-7,8.58-9.06,11.8-1,1.6-1.78,2.94-2.27,3.89a11.54,11.54,0,0,1-.8,1.45,1.48,1.48,0,0,1,.14-.41c.1-.26.25-.65.48-1.13a36.41,36.41,0,0,1,2.15-4c2-3.29,5.34-7.38,9-11.93,1.82-2.27,3.62-4.4,5.38-6.22a39.72,39.72,0,0,1,5-4.45A26.25,26.25,0,0,1,99,395.84c.48-.25.87-.39,1.13-.5S100.5,395.18,100.51,395.2Z" style="fill:#e0e0e0"></path><path d="M101.05,405.3a22.75,22.75,0,0,1-3.06.44,39.91,39.91,0,0,0-7.24,1.43,21.71,21.71,0,0,0-6.48,3.4c-1.5,1.15-2.2,2.11-2.27,2.05s.12-.27.45-.7A11.58,11.58,0,0,1,84,410.29a19.67,19.67,0,0,1,6.56-3.6,32.41,32.41,0,0,1,7.36-1.3A16.26,16.26,0,0,1,101.05,405.3Z" style="fill:#e0e0e0"></path><path d="M82.89,411.52c-.16-.1,1.22-2.2,2.28-5s1.24-5.36,1.42-5.33a5.12,5.12,0,0,1,0,1.64,17.66,17.66,0,0,1-.89,3.86,19.62,19.62,0,0,1-1.77,3.54A5.14,5.14,0,0,1,82.89,411.52Z" style="fill:#e0e0e0"></path><path d="M109.43,368.08a1.77,1.77,0,0,1-.49.26l-1.43.66c-.63.27-1.39.61-2.25,1.06s-1.87.9-2.92,1.53l-1.67,1c-.57.33-1.14.73-1.75,1.11-1.23.74-2.46,1.66-3.77,2.6a65,65,0,0,0-14.53,15c-.89,1.35-1.76,2.61-2.47,3.86-.35.62-.73,1.21-1,1.8l-.89,1.69c-.59,1.07-1,2.09-1.43,3s-.74,1.65-1,2.29-.44,1.07-.6,1.45a2,2,0,0,1-.25.5,3.37,3.37,0,0,1,.15-.53c.14-.39.31-.89.52-1.49s.51-1.44.91-2.33.79-1.93,1.37-3l.87-1.72c.3-.6.67-1.19,1-1.82.7-1.27,1.56-2.55,2.45-3.91a62.38,62.38,0,0,1,14.63-15.14c1.33-.93,2.58-1.84,3.82-2.58.62-.37,1.2-.76,1.79-1.09l1.69-.92c1.06-.61,2.09-1,3-1.47a24.79,24.79,0,0,1,2.29-1l1.48-.57Z" style="fill:#e0e0e0"></path><path d="M87.62,382.7a3.5,3.5,0,0,1,1.2-1.79,7.55,7.55,0,0,1,4.83-1.85,13.15,13.15,0,0,1,5.09,1,7.39,7.39,0,0,1,1.92.94,12,12,0,0,1-2-.6,15.42,15.42,0,0,0-5-.83,7.92,7.92,0,0,0-4.62,1.62A14.33,14.33,0,0,0,87.62,382.7Z" style="fill:#e0e0e0"></path><path d="M84.36,386.06a12.88,12.88,0,0,0,1.06-9.12,2.93,2.93,0,0,1,.57,1.3,9,9,0,0,1,.24,3.42,9.14,9.14,0,0,1-1,3.27C84.78,385.7,84.41,386.1,84.36,386.06Z" style="fill:#e0e0e0"></path><path d="M48.84,431.33c.75,13.34,4.77,26.91,10.95,40.62H86.68c5.89-13.58,9.63-27.12,10.3-40.62Z" style="fill:#e0e0e0"></path><path d="M92.62,452.92c0,.14-8.85.25-19.77.25s-19.77-.11-19.77-.25,8.85-.26,19.77-.26S92.62,452.78,92.62,452.92Z" style="fill:#fafafa"></path><path d="M92,457.75c0,.14-8.3.25-18.53.25S55,457.89,55,457.75s8.3-.25,18.54-.25S92,457.61,92,457.75Z" style="fill:#fafafa"></path><path d="M60.22,440.09a73.93,73.93,0,0,1,0,12.39,76.88,76.88,0,0,1,0-12.39Z" style="fill:#fafafa"></path><path d="M74.63,440.09a82.43,82.43,0,0,1,0,12.83,82.43,82.43,0,0,1,0-12.83Z" style="fill:#fafafa"></path><path d="M88.15,440a85.67,85.67,0,0,1,0,13.08,85.67,85.67,0,0,1,0-13.08Z" style="fill:#fafafa"></path><path d="M96.13,440.09c0,.14-10.39.25-23.19.25s-23.19-.11-23.19-.25,10.38-.25,23.19-.25S96.13,440,96.13,440.09Z" style="fill:#fafafa"></path></g><g id="freepik--Floor--inject-3"><path d="M478.46,472.06c0,.15-99.5.27-222.22.27S34,472.21,34,472.06s99.48-.26,222.24-.26S478.46,471.92,478.46,472.06Z" style="fill:#263238"></path></g><g id="freepik--Screen--inject-3"><path d="M390.56,41.48H363.4a6.74,6.74,0,0,0-6.59,6.89v4.92a6.76,6.76,0,0,1-6.6,6.9l-52.94,0a6.75,6.75,0,0,1-6.59-6.89V48.32a6.75,6.75,0,0,0-6.6-6.9H250.76a21.36,21.36,0,0,0-21.38,21.37l-.07,342.79a21.37,21.37,0,0,0,21.36,21.37l139.8.08a21.36,21.36,0,0,0,21.38-21.36l.07-342.79A21.38,21.38,0,0,0,390.56,41.48Z" style="fill:#fff"></path><path d="M390.56,41.48l.74,0a14.52,14.52,0,0,1,2.16.16,21.26,21.26,0,0,1,12.89,6.72,21.38,21.38,0,0,1,4.07,6.38,22.09,22.09,0,0,1,1.6,8.68c0,3.15,0,6.52,0,10.07,0,28.48,0,69.68.07,120.58s0,111.53,0,178.84v32a22.83,22.83,0,0,1-.82,6.52,21.73,21.73,0,0,1-2.73,6,23.2,23.2,0,0,1-4.45,4.94,21.62,21.62,0,0,1-12.34,4.79c-4.48.13-8.93,0-13.43.06H351.15l-55.86,0-28.57,0H252.29a22.59,22.59,0,0,1-13.92-3.84,21.84,21.84,0,0,1-8.47-11.7,23.67,23.67,0,0,1-.89-7.23v-7.21q0-14.38,0-28.57,0-28.38,0-55.88c0-36.63,0-72,0-105.62s0-65.64.05-95.58q0-22.44,0-43.31c0-1.74,0-3.47,0-5.19,0-.86.07-1.73.12-2.59s.21-1.71.43-2.54a21.91,21.91,0,0,1,4.5-9.06,21.73,21.73,0,0,1,17.43-7.72l18.63,0h13.35a6.79,6.79,0,0,1,4.2,1.17,7.1,7.1,0,0,1,2.62,3.43,11.34,11.34,0,0,1,.43,4.23v2.08a15.07,15.07,0,0,0,.07,2,6.8,6.8,0,0,0,1.59,3.58,6.34,6.34,0,0,0,3.27,2,7.27,7.27,0,0,0,1.93.19h9.68l28.18,0L348,60c1,0,2,.05,2.91,0a6.32,6.32,0,0,0,2.62-.92,6.77,6.77,0,0,0,3-4.31,11.25,11.25,0,0,0,.17-2.59c0-.87,0-1.72,0-2.56a14.79,14.79,0,0,1,.11-2.49,7.42,7.42,0,0,1,.8-2.29,6.81,6.81,0,0,1,3.42-3,10.71,10.71,0,0,1,4.24-.45l13.86,0,8.53,0,2.9,0-2.9,0-8.53,0-13.86,0a10.62,10.62,0,0,0-4.17.45A6.54,6.54,0,0,0,357.8,45a6.83,6.83,0,0,0-.78,2.22,14.26,14.26,0,0,0-.1,2.46v2.56a11.88,11.88,0,0,1-.17,2.64,7,7,0,0,1-3.09,4.47,6.47,6.47,0,0,1-2.72,1c-1,.09-1.94,0-2.94,0H297.71a7.27,7.27,0,0,1-2-.2A6.67,6.67,0,0,1,292.25,58a7.18,7.18,0,0,1-1.69-3.77,16.19,16.19,0,0,1-.07-2.08V50.06a11.23,11.23,0,0,0-.42-4.1,6.61,6.61,0,0,0-2.47-3.24,6.42,6.42,0,0,0-4-1.1h-32a21.26,21.26,0,0,0-17.09,7.58,21.27,21.27,0,0,0-4.39,8.87c-.22.81-.28,1.66-.43,2.49s-.1,1.69-.11,2.54v5.19q0,20.83,0,43.31c0,29.94,0,61.92,0,95.58s0,69,0,105.62v55.88q0,14.18,0,28.57v7.21a23,23,0,0,0,.87,7.06,21.23,21.23,0,0,0,8.24,11.37,21.89,21.89,0,0,0,13.57,3.74h14.43l28.57,0,55.86,0,27.22,0c4.48,0,9,.08,13.39,0a21.09,21.09,0,0,0,12-4.66,22.29,22.29,0,0,0,4.34-4.81,21,21,0,0,0,2.66-5.86,22.45,22.45,0,0,0,.8-6.37v-6.48q0-12.92,0-25.54c0-67.31.07-127.93.1-178.84s.09-92.1.12-120.58c0-3.55,0-6.92,0-10.07a22,22,0,0,0-1.56-8.61,21.44,21.44,0,0,0-4-6.35,21.38,21.38,0,0,0-12.79-6.76,17,17,0,0,0-2.16-.19Z" style="fill:#263238"></path><path d="M394.69,76.1c0,.09-3.53.19-7.88.23s-7.89,0-7.89-.1,3.53-.2,7.88-.23S394.69,76,394.69,76.1Z" style="fill:#263238"></path><path d="M394.73,80.13c0,.1-3.53.2-7.89.24s-7.89,0-7.89-.11,3.53-.19,7.89-.23S394.73,80,394.73,80.13Z" style="fill:#263238"></path><path d="M394.76,84.17c0,.09-3.53.2-7.89.23s-7.89,0-7.89-.1,3.53-.19,7.89-.23S394.76,84.08,394.76,84.17Z" style="fill:#263238"></path><path d="M251.18,88.78l.33,0,.91,0,3.37-.08-.09.09c0-.75,0-1.56,0-2.44,0-.46,0-.88,0-1.41a1.3,1.3,0,0,1,1.13-1c.54,0,1,0,1.61,0a1.3,1.3,0,0,1,1.1,1.3c0,1.14,0,2.33,0,3.56l-.16-.15,4.25,0-.16.17c0-1.71,0-3.48,0-5.3,0-.45,0-.9,0-1.35a1.37,1.37,0,0,0-.59-1L261,79.2l-1.79-1.77-.87-.86a2.07,2.07,0,0,0-.88-.66,1.17,1.17,0,0,0-1,.19c-.25.22-.53.53-.79.78l-1.52,1.54c-1,1-2,1.9-2.69,2.76a3.07,3.07,0,0,0-.21,1.59v1.5c0,.92,0,1.72,0,2.41s0,1.13,0,1.54a3.64,3.64,0,0,1,0,.56s0-.17,0-.51,0-.91,0-1.52l-.05-2.43q0-.72,0-1.53c0-.27,0-.55,0-.84a1.63,1.63,0,0,1,.23-.88c.79-1,1.72-1.82,2.69-2.85.49-.5,1-1,1.51-1.55.28-.26.5-.53.82-.81a1.47,1.47,0,0,1,1.24-.24,2.33,2.33,0,0,1,1,.73l.87.85L261.2,79l1.86,1.83a3,3,0,0,1,.47.52,1.39,1.39,0,0,1,.23.71c0,.45,0,.9,0,1.36,0,1.81,0,3.58,0,5.29v.17h-.16l-4.25,0h-.16v-.16c0-1.23,0-2.42,0-3.56a1,1,0,0,0-.86-1c-.49,0-1.06,0-1.54,0a1,1,0,0,0-.91.83c0,.43,0,.92,0,1.36v2.54h-.1l-3.42,0h-.89Z" style="fill:#263238"></path><rect x="239.69" y="233.44" width="164.46" height="40.95" style="fill:#f5f5f5"></rect><rect x="358.79" y="252.88" width="38.71" height="14.83" rx="7.42" style="fill:#FFC107"></rect><path d="M246.53,127.9v1h1.72v.69h-1.72v1.36h-.87V127.2h2.82v.7Z" style="fill:#263238"></path><path d="M251.44,130.93l-.72-1h-.79v1h-.86V127.2h1.61c1,0,1.62.52,1.62,1.36a1.19,1.19,0,0,1-.77,1.17l.84,1.2Zm-.81-3h-.7v1.3h.7c.53,0,.8-.25.8-.65S251.16,127.91,250.63,127.91Z" style="fill:#263238"></path><path d="M252.75,129.07a2,2,0,1,1,2,1.93A1.93,1.93,0,0,1,252.75,129.07Zm3.2,0a1.17,1.17,0,1,0-1.17,1.19A1.13,1.13,0,0,0,256,129.07Z" style="fill:#263238"></path><path d="M260.87,130.93V128.7l-1.1,1.84h-.38l-1.1-1.8v2.19h-.81V127.2h.72l1.39,2.32L261,127.2h.7l0,3.73Z" style="fill:#263238"></path><path d="M332,127.91h-1.19v-.71H334v.71h-1.19v3H332Z"></path><path d="M334.2,129.07a2,2,0,1,1,2,1.93A1.93,1.93,0,0,1,334.2,129.07Zm3.21,0a1.17,1.17,0,1,0-1.17,1.19A1.13,1.13,0,0,0,337.41,129.07Z"></path><path d="M244.58,162.65h1.57a1.87,1.87,0,1,1,0,3.73h-1.57Zm1.54,3.27a1.4,1.4,0,1,0,0-2.8h-1v2.8Z" style="fill:#263238"></path><path d="M251.68,165.92v.46H249v-3.73h2.63v.47h-2.1v1.14h1.87v.45h-1.87v1.21Z" style="fill:#263238"></path><path d="M255.55,164c0,.81-.58,1.3-1.55,1.3h-.92v1.13h-.53v-3.73H254C255,162.65,255.55,163.14,255.55,164Zm-.53,0c0-.53-.35-.83-1-.83h-.9v1.67h.9C254.67,164.79,255,164.48,255,164Z" style="fill:#263238"></path><path d="M258.53,165.45h-2l-.41.93h-.54l1.68-3.73h.53l1.69,3.73h-.55Zm-.19-.43-.81-1.82-.8,1.82Z" style="fill:#263238"></path><path d="M262.54,166.38l-.8-1.14h-1.16v1.13h-.53v-3.73h1.45c1,0,1.56.49,1.56,1.3a1.18,1.18,0,0,1-.82,1.18l.88,1.25Zm0-2.43c0-.53-.36-.83-1-.83h-.91v1.67h.91C262.17,164.79,262.53,164.48,262.53,164Z" style="fill:#263238"></path><path d="M264.61,163.12h-1.28v-.47h3.08v.47h-1.28v3.26h-.52Z" style="fill:#263238"></path><path d="M266.89,164.77v-2.12h.53v2.1c0,.83.38,1.2,1.05,1.2s1.06-.37,1.06-1.2v-2.1H270v2.12a1.58,1.58,0,1,1-3.15,0Z" style="fill:#263238"></path><path d="M273.63,166.38l-.81-1.14h-1.15v1.13h-.54v-3.73h1.46c1,0,1.55.49,1.55,1.3a1.17,1.17,0,0,1-.82,1.18l.89,1.25Zm0-2.43c0-.53-.36-.83-1-.83h-.9v1.67h.9C273.25,164.79,273.61,164.48,273.61,164Z" style="fill:#263238"></path><path d="M277.71,165.92v.46H275v-3.73h2.63v.47h-2.1v1.14h1.87v.45h-1.87v1.21Z" style="fill:#263238"></path><path d="M302.18,245.81a1.81,1.81,0,0,1-1.9,2,1.94,1.94,0,0,1-1-.26l.32-.63a1.18,1.18,0,0,0,.69.19,1,1,0,0,0,1.05-1.09,1.26,1.26,0,0,1-.92.33,1.18,1.18,0,0,1-1.29-1.16,1.29,1.29,0,0,1,1.41-1.24C301.55,244,302.18,244.61,302.18,245.81Zm-1-.65c0-.32-.24-.55-.65-.55a.56.56,0,1,0,0,1.11A.58.58,0,0,0,301.22,245.16Z" style="fill:#263238"></path><path d="M302.57,245.36a.52.52,0,0,1,1,0,.52.52,0,1,1-1,0Zm0,1.91a.52.52,0,0,1,1,0,.52.52,0,1,1-1,0Z" style="fill:#263238"></path><path d="M304,245.89c0-1.23.68-1.93,1.6-1.93s1.6.7,1.6,1.93-.68,1.93-1.6,1.93S304,247.12,304,245.89Zm2.33,0c0-.85-.3-1.2-.73-1.2s-.73.35-.73,1.2.3,1.2.73,1.2S306.32,246.74,306.32,245.89Z" style="fill:#263238"></path><path d="M307.61,245.89c0-1.23.68-1.93,1.59-1.93s1.6.7,1.6,1.93-.68,1.93-1.6,1.93S307.61,247.12,307.61,245.89Zm2.32,0c0-.85-.3-1.2-.73-1.2s-.72.35-.72,1.2.3,1.2.72,1.2S309.93,246.74,309.93,245.89Z" style="fill:#263238"></path><path d="M312.8,245.92h1.51v.67H312.8Z" style="fill:#263238"></path><path d="M317.73,244v3.72h-.86v-3h-.75V244Z" style="fill:#263238"></path><path d="M321.16,247.05v.7h-2.81v-.56l1.43-1.35c.33-.32.39-.51.39-.69s-.2-.46-.59-.46a.92.92,0,0,0-.78.37l-.62-.41a1.71,1.71,0,0,1,1.48-.69c.83,0,1.38.43,1.38,1.1a1.48,1.48,0,0,1-.62,1.18l-.86.81Z" style="fill:#263238"></path><path d="M321.49,245.36a.52.52,0,0,1,1,0,.52.52,0,0,1-1,0Zm0,1.91a.52.52,0,0,1,1,0,.52.52,0,1,1-1,0Z" style="fill:#263238"></path><path d="M322.92,245.89c0-1.23.68-1.93,1.59-1.93s1.6.7,1.6,1.93-.68,1.93-1.6,1.93S322.92,247.12,322.92,245.89Zm2.32,0c0-.85-.3-1.2-.73-1.2s-.72.35-.72,1.2.3,1.2.72,1.2S325.24,246.74,325.24,245.89Z" style="fill:#263238"></path><path d="M326.53,245.89c0-1.23.68-1.93,1.6-1.93s1.6.7,1.6,1.93-.68,1.93-1.6,1.93S326.53,247.12,326.53,245.89Zm2.33,0c0-.85-.3-1.2-.73-1.2s-.73.35-.73,1.2.3,1.2.73,1.2S328.86,246.74,328.86,245.89Z" style="fill:#263238"></path><path d="M335.12,245.38c0,.83-.62,1.35-1.62,1.35h-.75v1h-.86V244h1.61C334.5,244,335.12,244.54,335.12,245.38Zm-.87,0c0-.41-.27-.65-.8-.65h-.7V246h.7C334,246,334.25,245.78,334.25,245.38Z" style="fill:#263238"></path><path d="M339.12,247.75v-2.23l-1.1,1.84h-.39l-1.09-1.79v2.18h-.81V244h.71l1.4,2.31,1.37-2.31h.71v3.72Z" style="fill:#263238"></path><path d="M388,219.81H341.3a8.06,8.06,0,0,1-8.07-8.06h0a8.06,8.06,0,0,1,8.07-8.06H388a8.06,8.06,0,0,1,8.06,8.06h0A8.06,8.06,0,0,1,388,219.81Z" style="fill:#FFC107"></path><path d="M353.06,213l.3-.65a2.23,2.23,0,0,0,1.24.39c.52,0,.73-.17.73-.4,0-.71-2.19-.22-2.19-1.63,0-.64.52-1.17,1.59-1.17a2.55,2.55,0,0,1,1.31.33l-.27.67a2.13,2.13,0,0,0-1-.3c-.51,0-.71.19-.71.43,0,.7,2.19.22,2.19,1.6,0,.63-.52,1.17-1.6,1.17A2.7,2.7,0,0,1,353.06,213Z" style="fill:#fff"></path><path d="M359.71,212.63v.7H356.8v-3.77h2.85v.7h-2v.81h1.75v.68h-1.75v.88Z" style="fill:#fff"></path><path d="M362.89,212.52h-1.75l-.33.81h-.9l1.68-3.77h.87l1.68,3.77h-.91Zm-.27-.67-.6-1.44-.6,1.44Z" style="fill:#fff"></path><path d="M366.94,213.33l-.73-1.05h-.8v1.05h-.88v-3.77h1.64c1,0,1.63.52,1.63,1.36a1.22,1.22,0,0,1-.77,1.19l.84,1.22Zm-.82-3.06h-.71v1.31h.71c.53,0,.8-.25.8-.66S366.65,210.27,366.12,210.27Z" style="fill:#fff"></path><path d="M368.26,211.44a2.07,2.07,0,0,1,3.59-1.28l-.56.52a1.18,1.18,0,0,0-.94-.45,1.21,1.21,0,0,0,0,2.42,1.18,1.18,0,0,0,.94-.45l.56.52a2.07,2.07,0,0,1-3.59-1.28Z" style="fill:#fff"></path><path d="M375.9,209.56v3.77H375v-1.55h-1.72v1.55h-.87v-3.77h.87V211H375v-1.48Z" style="fill:#fff"></path><path d="M375,262v1h-3.89v-.78l2-1.87c.46-.44.54-.7.54-.95s-.28-.64-.83-.64a1.26,1.26,0,0,0-1.06.51l-.87-.55a2.39,2.39,0,0,1,2-1c1.15,0,1.91.59,1.91,1.52a2.06,2.06,0,0,1-.86,1.63L372.76,262Z" style="fill:#fff"></path><path d="M375.45,260.41c0-1.7.94-2.66,2.2-2.66s2.21,1,2.21,2.66-.93,2.66-2.21,2.66S375.45,262.11,375.45,260.41Zm3.21,0c0-1.17-.41-1.65-1-1.65s-1,.48-1,1.65.42,1.66,1,1.66S378.66,261.58,378.66,260.41Z" style="fill:#fff"></path><path d="M385.23,261.45l.76.71a2.63,2.63,0,0,1-2.12.91,2.67,2.67,0,0,1-2.67-1.84h-.83v-.62h.72a1.27,1.27,0,0,1,0-.2,1.41,1.41,0,0,1,0-.2h-.72v-.61h.83a2.68,2.68,0,0,1,2.67-1.85,2.63,2.63,0,0,1,2.12.91l-.76.71a1.66,1.66,0,0,0-1.3-.61,1.58,1.58,0,0,0-1.45.84h1.86v.61h-2a1.41,1.41,0,0,0,0,.2,1.27,1.27,0,0,0,0,.2h2v.62h-1.86a1.59,1.59,0,0,0,1.45.83A1.66,1.66,0,0,0,385.23,261.45Z" style="fill:#fff"></path><path d="M333.81,166.38l-.8-1.14h-1.16v1.13h-.53v-3.73h1.45c1,0,1.56.49,1.56,1.3a1.18,1.18,0,0,1-.82,1.18l.88,1.25Zm0-2.43c0-.53-.35-.83-1-.83h-.91v1.67h.91C333.44,164.79,333.79,164.49,333.79,164Z"></path><path d="M337.89,165.92v.46h-2.7v-3.73h2.63v.47h-2.1v1.14h1.87v.45h-1.87v1.21Z"></path><path d="M339.5,163.12h-1.28v-.47h3.08v.47H340v3.26h-.52Z"></path><path d="M341.78,164.77v-2.12h.53v2.1c0,.83.38,1.2,1.05,1.2s1.06-.37,1.06-1.2v-2.1h.51v2.12a1.58,1.58,0,1,1-3.15,0Z"></path><path d="M348.52,166.38l-.81-1.14h-1.15v1.13H346v-3.73h1.45c1,0,1.55.49,1.55,1.3a1.18,1.18,0,0,1-.82,1.18l.89,1.25Zm0-2.43c0-.53-.36-.83-1-.83h-.9v1.67h.9C348.14,164.79,348.5,164.49,348.5,164Z"></path><path d="M353.1,162.65v3.73h-.43l-2.24-2.78v2.78h-.53v-3.73h.43l2.24,2.78v-2.78Z"></path><path d="M251.5,203.18h-2l-.41.93h-.55l1.69-3.73h.53l1.69,3.73h-.56Zm-.18-.43-.81-1.83-.8,1.83Z" style="fill:#263238"></path><path d="M253,200.38h1.57a1.87,1.87,0,1,1,0,3.73H253Zm1.54,3.26a1.4,1.4,0,1,0,0-2.8h-1v2.8Z" style="fill:#263238"></path><path d="M257.39,202.5v-2.12h.54v2.1c0,.82.37,1.2,1.05,1.2s1-.38,1-1.2v-2.1h.52v2.12a1.58,1.58,0,1,1-3.16,0Z" style="fill:#263238"></path><path d="M261.64,200.38h.53v3.26h2v.47h-2.55Z" style="fill:#263238"></path><path d="M265.19,200.84h-1.27v-.46H267v.46h-1.28v3.27h-.53Z" style="fill:#263238"></path><path d="M267.19,203.68l.2-.41a1.92,1.92,0,0,0,1.23.43c.64,0,.92-.25.92-.58,0-.91-2.26-.33-2.26-1.72,0-.57.45-1.06,1.43-1.06a2.14,2.14,0,0,1,1.2.33l-.18.42a2,2,0,0,0-1-.3c-.63,0-.91.27-.91.59,0,.91,2.26.34,2.26,1.71,0,.57-.46,1.06-1.44,1.06A2.21,2.21,0,0,1,267.19,203.68Z" style="fill:#263238"></path><path d="M269.74,219.4a6.76,6.76,0,0,1,.75-.11,5.43,5.43,0,0,0,2-.75,5.52,5.52,0,0,0,2.18-2.52,5.43,5.43,0,0,0-.05-4.33,5.36,5.36,0,0,0-4.1-3.08c-.94-.12-2,0-3.07-.05h-3.28l-14.62,0a5.28,5.28,0,0,0-2.54,9.92,5.59,5.59,0,0,0,1.49.55,8.18,8.18,0,0,0,1.57.11h3.1l5.56,0,8.05.09,2.19,0a3.44,3.44,0,0,1,.76.05,4.48,4.48,0,0,1-.76,0l-2.19.05-8.05.08-5.56,0-3.1,0a8.63,8.63,0,0,1-1.66-.11,6.14,6.14,0,0,1-1.63-.59,5.76,5.76,0,0,1-2.44-2.56,5.78,5.78,0,0,1,5.21-8.3l14.62,0h3.28c1.08,0,2.08,0,3.13.08a5.69,5.69,0,0,1,4.36,7.95,5.6,5.6,0,0,1-2.35,2.58,4.93,4.93,0,0,1-2.09.68A3.48,3.48,0,0,1,269.74,219.4Z" style="fill:#e0e0e0"></path><path d="M261,215.31v.86h-3.46v-.69l1.77-1.67c.4-.38.47-.62.47-.84s-.25-.57-.73-.57a1.12,1.12,0,0,0-.95.46l-.77-.5a2.11,2.11,0,0,1,1.82-.85c1,0,1.7.52,1.7,1.35a1.8,1.8,0,0,1-.77,1.45l-1,1Z" style="fill:#263238"></path><rect x="266.99" y="212.29" width="1" height="3.52" style="fill:#263238"></rect><rect x="265.73" y="213.55" width="3.52" height="1" style="fill:#263238"></rect><path d="M287.59,202.24a1.88,1.88,0,0,1,2-1.9,1.82,1.82,0,0,1,1.42.58l-.35.33a1.38,1.38,0,0,0-1.05-.44,1.44,1.44,0,1,0,0,2.87,1.39,1.39,0,0,0,1.05-.45l.35.33a1.83,1.83,0,0,1-1.42.59A1.88,1.88,0,0,1,287.59,202.24Z" style="fill:#263238"></path><path d="M295,200.38v3.73h-.54v-1.66h-2.14v1.66h-.53v-3.73h.53V202h2.14v-1.6Z" style="fill:#263238"></path><path d="M296.06,200.38h.54v3.73h-.54Z" style="fill:#263238"></path><path d="M297.71,200.38h.54v3.26h2v.47h-2.56Z" style="fill:#263238"></path><path d="M300.88,200.38h1.57a1.87,1.87,0,1,1,0,3.73h-1.57Zm1.54,3.26a1.4,1.4,0,1,0,0-2.8h-1v2.8Z" style="fill:#263238"></path><path d="M306.19,219.4a6.76,6.76,0,0,1,.75-.11,5.44,5.44,0,0,0,4.14-7.6,5.36,5.36,0,0,0-4.11-3.08c-.93-.12-2,0-3.06-.05h-3.28l-14.62,0a5.28,5.28,0,0,0-2.54,9.92,5.47,5.47,0,0,0,1.49.55,8.12,8.12,0,0,0,1.57.11h3.09l5.56,0,8.06.09,2.18,0a3.5,3.5,0,0,1,.77.05,4.55,4.55,0,0,1-.77,0l-2.18.05-8.06.08-5.56,0-3.09,0a8.63,8.63,0,0,1-1.66-.11,6.14,6.14,0,0,1-1.63-.59,5.76,5.76,0,0,1-2.44-2.56,5.78,5.78,0,0,1,5.21-8.3l14.62,0h3.28c1.08,0,2.08,0,3.13.08a5.72,5.72,0,0,1,4.37,3.36,5.66,5.66,0,0,1,0,4.59,5.53,5.53,0,0,1-2.34,2.58,5,5,0,0,1-2.09.68A3.44,3.44,0,0,1,306.19,219.4Z" style="fill:#e0e0e0"></path><path d="M294,213.88c0-1.51.84-2.37,2-2.37s2,.86,2,2.37-.83,2.37-2,2.37S294,215.39,294,213.88Zm2.87,0c0-1-.37-1.47-.9-1.47s-.89.43-.89,1.47.36,1.47.89,1.47S296.9,214.92,296.9,213.88Z" style="fill:#263238"></path><rect x="303.44" y="212.29" width="1" height="3.52" style="fill:#263238"></rect><rect x="302.17" y="213.55" width="3.52" height="1" style="fill:#263238"></rect><path d="M409.1,227.83c0,.14-39.44.26-88.09.26s-88.09-.12-88.09-.26,39.43-.26,88.09-.26S409.1,227.68,409.1,227.83Z" style="fill:#e0e0e0"></path><path d="M344.39,254.57c0,.15-10.59.26-23.64.26s-23.64-.11-23.64-.26,10.58-.26,23.64-.26S344.39,254.43,344.39,254.57Z" style="fill:#e0e0e0"></path><path d="M344.21,260c0,.15-10.58.26-23.64.26s-23.64-.11-23.64-.26,10.59-.26,23.64-.26S344.21,259.87,344.21,260Z" style="fill:#e0e0e0"></path><path d="M318.9,265.46c0,.14-4.88.26-10.89.26s-10.9-.12-10.9-.26,4.88-.27,10.9-.27S318.9,265.31,318.9,265.46Z" style="fill:#e0e0e0"></path><path d="M392.69,246.67c0,.14-6.94.26-15.5.26s-15.5-.12-15.5-.26,6.94-.26,15.5-.26S392.69,246.53,392.69,246.67Z" style="fill:#263238"></path><path d="M275,267.13c0,.14-5.73.26-12.79.26s-12.79-.12-12.79-.26,5.72-.26,12.79-.26S275,267,275,267.13Z" style="fill:#FFC107"></path><path d="M288.63,274.18c-.14,0-.26-8.94-.26-20s.12-20,.26-20,.26,8.93.26,20S288.77,274.18,288.63,274.18Z" style="fill:#263238"></path><rect x="239.69" y="280.12" width="164.46" height="40.95" style="fill:#f5f5f5"></rect><path d="M390.08,314.4H366.2a7.42,7.42,0,0,1-7.41-7.42h0a7.42,7.42,0,0,1,7.41-7.42h23.88A7.42,7.42,0,0,1,397.5,307h0A7.42,7.42,0,0,1,390.08,314.4Z" style="fill:#455a64"></path><path d="M302.18,292.49a1.81,1.81,0,0,1-1.9,2,1.94,1.94,0,0,1-1-.26l.32-.63a1.17,1.17,0,0,0,.69.18,1,1,0,0,0,1.05-1.08,1.26,1.26,0,0,1-.92.33,1.18,1.18,0,0,1-1.29-1.16,1.29,1.29,0,0,1,1.41-1.24C301.55,290.64,302.18,291.29,302.18,292.49Zm-1-.65c0-.32-.24-.55-.65-.55a.56.56,0,1,0,0,1.11A.58.58,0,0,0,301.22,291.84Z" style="fill:#263238"></path><path d="M302.57,292a.52.52,0,0,1,1,0,.52.52,0,1,1-1,0Zm0,1.91a.52.52,0,0,1,1,0,.52.52,0,1,1-1,0Z" style="fill:#263238"></path><path d="M304,292.57c0-1.23.68-1.93,1.6-1.93s1.6.7,1.6,1.93-.68,1.93-1.6,1.93S304,293.8,304,292.57Zm2.33,0c0-.85-.3-1.2-.73-1.2s-.73.35-.73,1.2.3,1.2.73,1.2S306.32,293.42,306.32,292.57Z" style="fill:#263238"></path><path d="M307.61,292.57c0-1.23.68-1.93,1.59-1.93s1.6.7,1.6,1.93-.68,1.93-1.6,1.93S307.61,293.8,307.61,292.57Zm2.32,0c0-.85-.3-1.2-.73-1.2s-.72.35-.72,1.2.3,1.2.72,1.2S309.93,293.42,309.93,292.57Z" style="fill:#263238"></path><path d="M312.8,292.6h1.51v.67H312.8Z" style="fill:#263238"></path><path d="M317.73,290.71v3.72h-.86v-3h-.75v-.69Z" style="fill:#263238"></path><path d="M321.16,293.73v.7h-2.81v-.56l1.43-1.35c.33-.32.39-.51.39-.69s-.2-.46-.59-.46a.92.92,0,0,0-.78.37l-.62-.41a1.71,1.71,0,0,1,1.48-.69c.83,0,1.38.43,1.38,1.1a1.48,1.48,0,0,1-.62,1.18l-.86.81Z" style="fill:#263238"></path><path d="M321.49,292a.52.52,0,0,1,1,0,.52.52,0,0,1-1,0Zm0,1.91a.52.52,0,0,1,1,0,.52.52,0,1,1-1,0Z" style="fill:#263238"></path><path d="M322.92,292.57c0-1.23.68-1.93,1.59-1.93s1.6.7,1.6,1.93-.68,1.93-1.6,1.93S322.92,293.8,322.92,292.57Zm2.32,0c0-.85-.3-1.2-.73-1.2s-.72.35-.72,1.2.3,1.2.72,1.2S325.24,293.42,325.24,292.57Z" style="fill:#263238"></path><path d="M326.53,292.57c0-1.23.68-1.93,1.6-1.93s1.6.7,1.6,1.93-.68,1.93-1.6,1.93S326.53,293.8,326.53,292.57Zm2.33,0c0-.85-.3-1.2-.73-1.2s-.73.35-.73,1.2.3,1.2.73,1.2S328.86,293.42,328.86,292.57Z" style="fill:#263238"></path><path d="M335.12,292.06c0,.83-.62,1.35-1.62,1.35h-.75v1h-.86v-3.72h1.61C334.5,290.71,335.12,291.22,335.12,292.06Zm-.87,0c0-.41-.27-.65-.8-.65h-.7v1.29h.7C334,292.7,334.25,292.46,334.25,292.06Z" style="fill:#263238"></path><path d="M339.12,294.43V292.2L338,294h-.39l-1.09-1.8v2.19h-.81v-3.72h.71l1.4,2.31,1.37-2.31h.71v3.72Z" style="fill:#263238"></path><path d="M375,308.05c0,.91-.67,1.7-2.14,1.7a3.51,3.51,0,0,1-2-.55l.47-.91a2.45,2.45,0,0,0,1.47.46c.59,0,1-.25,1-.66s-.26-.67-1.2-.67H371.3l.26-2.9h3.14v1h-2.15l-.08,1h.42C374.41,306.45,375,307.14,375,308.05Z" style="fill:#fff"></path><path d="M375.5,307.09c0-1.7.94-2.66,2.21-2.66s2.2,1,2.2,2.66-.93,2.66-2.2,2.66S375.5,308.79,375.5,307.09Zm3.21,0c0-1.17-.41-1.65-1-1.65s-1,.48-1,1.65.41,1.66,1,1.66S378.71,308.26,378.71,307.09Z" style="fill:#fff"></path><path d="M385.28,308.13l.76.71a2.63,2.63,0,0,1-2.12.91,2.67,2.67,0,0,1-2.67-1.84h-.83v-.62h.72v-.4h-.72v-.61h.83a2.68,2.68,0,0,1,2.67-1.85,2.63,2.63,0,0,1,2.12.91l-.76.71a1.66,1.66,0,0,0-1.3-.61,1.58,1.58,0,0,0-1.45.84h1.86v.61h-2.05a1.41,1.41,0,0,0,0,.2,1.34,1.34,0,0,0,0,.2h2.05v.62h-1.86a1.59,1.59,0,0,0,1.45.83A1.66,1.66,0,0,0,385.28,308.13Z" style="fill:#fff"></path><path d="M279.28,294.69c-1.72-2.23-6.56-1.14-9.92.44,0,0-2.31.95-3.18,1.45h0l-7.6-1.36a3.16,3.16,0,0,0-1.82.22l-.64.29a.42.42,0,0,0,0,.76l5.5,2.7v.07l-5.74,3.36-.09.05a5,5,0,0,1-3.57.52l-3-.69a.75.75,0,0,0-.72,1.28l3.3,3.06a1.81,1.81,0,0,0,1.91.36l1.66-.66,8.37-3.46-1.19,4.6a.3.3,0,0,0,.3.37h.38a1.53,1.53,0,0,0,1.31-.7l3.62-6.11,9.88-4.08C279.36,296.65,279.88,295.57,279.28,294.69Z" style="fill:#455a64"></path><path d="M279.28,247c-1.72-2.24-6.56-1.14-9.92.44,0,0-2.31.94-3.18,1.45h0l-7.6-1.35a3.16,3.16,0,0,0-1.82.22l-.64.29a.42.42,0,0,0,0,.76l5.5,2.7v.07l-5.74,3.36-.09,0a4.94,4.94,0,0,1-3.57.51l-3-.68a.77.77,0,0,0-.45,0,.75.75,0,0,0-.27,1.26l3.3,3.07a1.79,1.79,0,0,0,1.91.35l1.66-.65,8.37-3.46-1.19,4.6a.3.3,0,0,0,.3.37h.38a1.53,1.53,0,0,0,1.31-.7l3.62-6.11,9.88-4.09C279.36,249,279.88,247.87,279.28,247Z" style="fill:#FFC107"></path><path d="M344.39,301.25c0,.15-10.59.26-23.64.26s-23.64-.11-23.64-.26,10.58-.26,23.64-.26S344.39,301.11,344.39,301.25Z" style="fill:#e0e0e0"></path><path d="M344.21,306.69c0,.15-10.58.26-23.64.26s-23.64-.11-23.64-.26,10.59-.26,23.64-.26S344.21,306.55,344.21,306.69Z" style="fill:#e0e0e0"></path><path d="M318.9,312.13c0,.15-4.88.27-10.89.27s-10.9-.12-10.9-.27,4.88-.26,10.9-.26S318.9,312,318.9,312.13Z" style="fill:#e0e0e0"></path><path d="M392.69,293.35c0,.14-6.94.26-15.5.26s-15.5-.12-15.5-.26,6.94-.26,15.5-.26S392.69,293.2,392.69,293.35Z" style="fill:#263238"></path><path d="M275,313.81c0,.14-5.73.26-12.79.26s-12.79-.12-12.79-.26,5.72-.26,12.79-.26S275,313.66,275,313.81Z" style="fill:#455a64"></path><path d="M288.63,320.86c-.14,0-.26-8.94-.26-20s.12-20,.26-20,.26,8.93.26,20S288.77,320.86,288.63,320.86Z" style="fill:#263238"></path><rect x="239.69" y="326.8" width="164.46" height="40.95" style="fill:#f5f5f5"></rect><path d="M390.08,361.07H366.2a7.41,7.41,0,0,1-7.41-7.41h0a7.42,7.42,0,0,1,7.41-7.42h23.88a7.42,7.42,0,0,1,7.42,7.42h0A7.42,7.42,0,0,1,390.08,361.07Z" style="fill:#FFC107"></path><path d="M302.18,339.17a1.81,1.81,0,0,1-1.9,2,1.94,1.94,0,0,1-1-.26l.32-.63a1.17,1.17,0,0,0,.69.18,1,1,0,0,0,1.05-1.08,1.26,1.26,0,0,1-.92.33,1.19,1.19,0,0,1-1.29-1.16,1.29,1.29,0,0,1,1.41-1.24C301.55,337.32,302.18,338,302.18,339.17Zm-1-.65c0-.32-.24-.55-.65-.55a.56.56,0,1,0,0,1.11A.58.58,0,0,0,301.22,338.52Z" style="fill:#263238"></path><path d="M302.57,338.72a.52.52,0,0,1,1,0,.52.52,0,1,1-1,0Zm0,1.91a.52.52,0,0,1,1,0,.52.52,0,1,1-1,0Z" style="fill:#263238"></path><path d="M304,339.25c0-1.23.68-1.93,1.6-1.93s1.6.7,1.6,1.93-.68,1.93-1.6,1.93S304,340.48,304,339.25Zm2.33,0c0-.85-.3-1.2-.73-1.2s-.73.35-.73,1.2.3,1.2.73,1.2S306.32,340.1,306.32,339.25Z" style="fill:#263238"></path><path d="M307.61,339.25c0-1.23.68-1.93,1.59-1.93s1.6.7,1.6,1.93-.68,1.93-1.6,1.93S307.61,340.48,307.61,339.25Zm2.32,0c0-.85-.3-1.2-.73-1.2s-.72.35-.72,1.2.3,1.2.72,1.2S309.93,340.1,309.93,339.25Z" style="fill:#263238"></path><path d="M312.8,339.28h1.51V340H312.8Z" style="fill:#263238"></path><path d="M317.73,337.39v3.72h-.86v-3h-.75v-.69Z" style="fill:#263238"></path><path d="M321.16,340.41v.7h-2.81v-.56l1.43-1.35c.33-.32.39-.51.39-.69s-.2-.46-.59-.46a.92.92,0,0,0-.78.37l-.62-.41a1.71,1.71,0,0,1,1.48-.69c.83,0,1.38.43,1.38,1.1a1.48,1.48,0,0,1-.62,1.18l-.86.81Z" style="fill:#263238"></path><path d="M321.49,338.72a.52.52,0,0,1,1,0,.52.52,0,0,1-1,0Zm0,1.91a.52.52,0,0,1,1,0,.52.52,0,1,1-1,0Z" style="fill:#263238"></path><path d="M322.92,339.25c0-1.23.68-1.93,1.59-1.93s1.6.7,1.6,1.93-.68,1.93-1.6,1.93S322.92,340.48,322.92,339.25Zm2.32,0c0-.85-.3-1.2-.73-1.2s-.72.35-.72,1.2.3,1.2.72,1.2S325.24,340.1,325.24,339.25Z" style="fill:#263238"></path><path d="M326.53,339.25c0-1.23.68-1.93,1.6-1.93s1.6.7,1.6,1.93-.68,1.93-1.6,1.93S326.53,340.48,326.53,339.25Zm2.33,0c0-.85-.3-1.2-.73-1.2s-.73.35-.73,1.2.3,1.2.73,1.2S328.86,340.1,328.86,339.25Z" style="fill:#263238"></path><path d="M335.12,338.74c0,.83-.62,1.35-1.62,1.35h-.75v1h-.86v-3.72h1.61C334.5,337.39,335.12,337.9,335.12,338.74Zm-.87,0c0-.41-.27-.65-.8-.65h-.7v1.29h.7C334,339.38,334.25,339.14,334.25,338.74Z" style="fill:#263238"></path><path d="M339.12,341.11v-2.23l-1.1,1.84h-.39l-1.09-1.8v2.19h-.81v-3.72h.71l1.4,2.31,1.37-2.31h.71v3.72Z" style="fill:#263238"></path><path d="M372.11,351.2v5.15h-1.19v-4.2h-1v-.95Z" style="fill:#fff"></path><path d="M373,353.77c0-1.7.94-2.66,2.2-2.66s2.21,1,2.21,2.66-.93,2.66-2.21,2.66S373,355.47,373,353.77Zm3.21,0c0-1.17-.41-1.65-1-1.65s-1,.48-1,1.65.42,1.66,1,1.66S376.22,354.94,376.22,353.77Z" style="fill:#fff"></path><path d="M378,353.77c0-1.7.94-2.66,2.2-2.66s2.21,1,2.21,2.66-.93,2.66-2.21,2.66S378,355.47,378,353.77Zm3.21,0c0-1.17-.41-1.65-1-1.65s-1,.48-1,1.65.42,1.66,1,1.66S381.21,354.94,381.21,353.77Z" style="fill:#fff"></path><path d="M387.78,354.81l.76.7a2.62,2.62,0,0,1-2.12.92,2.67,2.67,0,0,1-2.67-1.84h-.83V354h.72a1.34,1.34,0,0,1,0-.2,1.41,1.41,0,0,1,0-.2h-.72V353h.83a2.68,2.68,0,0,1,2.67-1.85,2.65,2.65,0,0,1,2.12.91l-.76.71a1.68,1.68,0,0,0-1.3-.61A1.61,1.61,0,0,0,385,353h1.86v.61h-2a1.41,1.41,0,0,0,0,.2,1.34,1.34,0,0,0,0,.2h2v.62H385a1.62,1.62,0,0,0,1.46.83A1.68,1.68,0,0,0,387.78,354.81Z" style="fill:#fff"></path><path d="M279.28,341.37c-1.72-2.23-6.56-1.14-9.92.44,0,0-2.31.94-3.18,1.45h0l-7.6-1.36a3.16,3.16,0,0,0-1.82.22l-.64.29a.42.42,0,0,0,0,.76l5.5,2.7V346l-5.74,3.36-.09.05a5,5,0,0,1-3.57.52l-3-.69a.75.75,0,0,0-.72,1.28l3.3,3.06a1.81,1.81,0,0,0,1.91.36l1.66-.66,8.37-3.46-1.19,4.6a.3.3,0,0,0,.3.37h.38a1.53,1.53,0,0,0,1.31-.7l3.62-6.11,9.88-4.09C279.36,343.33,279.88,342.25,279.28,341.37Z" style="fill:#FFC107"></path><path d="M344.39,347.93c0,.15-10.59.26-23.64.26s-23.64-.11-23.64-.26,10.58-.26,23.64-.26S344.39,347.79,344.39,347.93Z" style="fill:#e0e0e0"></path><path d="M344.21,353.37c0,.15-10.58.26-23.64.26s-23.64-.11-23.64-.26,10.59-.26,23.64-.26S344.21,353.23,344.21,353.37Z" style="fill:#e0e0e0"></path><path d="M318.9,358.81c0,.15-4.88.26-10.89.26s-10.9-.11-10.9-.26,4.88-.26,10.9-.26S318.9,358.67,318.9,358.81Z" style="fill:#e0e0e0"></path><path d="M392.69,340c0,.14-6.94.26-15.5.26s-15.5-.12-15.5-.26,6.94-.26,15.5-.26S392.69,339.88,392.69,340Z" style="fill:#263238"></path><path d="M275,360.49c0,.14-5.73.26-12.79.26s-12.79-.12-12.79-.26,5.72-.26,12.79-.26S275,360.34,275,360.49Z" style="fill:#FFC107"></path><path d="M288.63,367.54c-.14,0-.26-8.94-.26-20s.12-20,.26-20,.26,8.93.26,20S288.77,367.54,288.63,367.54Z" style="fill:#263238"></path><rect x="239.69" y="373.48" width="164.46" height="40.94" style="fill:#f5f5f5"></rect><path d="M390.08,407.75H366.2a7.41,7.41,0,0,1-7.41-7.41h0a7.42,7.42,0,0,1,7.41-7.42h23.88a7.42,7.42,0,0,1,7.42,7.42h0A7.42,7.42,0,0,1,390.08,407.75Z" style="fill:#455a64"></path><path d="M302.18,385.85a1.8,1.8,0,0,1-1.9,2,2,2,0,0,1-1-.25l.32-.63a1.25,1.25,0,0,0,.69.18,1,1,0,0,0,1.05-1.08,1.31,1.31,0,0,1-.92.33,1.19,1.19,0,0,1-1.29-1.16,1.29,1.29,0,0,1,1.41-1.24C301.55,384,302.18,384.64,302.18,385.85Zm-1-.65a.57.57,0,0,0-.65-.56.56.56,0,1,0,0,1.12A.58.58,0,0,0,301.22,385.2Z" style="fill:#263238"></path><path d="M302.57,385.4a.52.52,0,0,1,1,0,.52.52,0,1,1-1,0Zm0,1.91a.52.52,0,0,1,1,0,.52.52,0,1,1-1,0Z" style="fill:#263238"></path><path d="M304,385.93c0-1.23.68-1.93,1.6-1.93s1.6.7,1.6,1.93-.68,1.92-1.6,1.92S304,387.16,304,385.93Zm2.33,0c0-.85-.3-1.2-.73-1.2s-.73.35-.73,1.2.3,1.2.73,1.2S306.32,386.77,306.32,385.93Z" style="fill:#263238"></path><path d="M307.61,385.93c0-1.23.68-1.93,1.59-1.93s1.6.7,1.6,1.93-.68,1.92-1.6,1.92S307.61,387.16,307.61,385.93Zm2.32,0c0-.85-.3-1.2-.73-1.2s-.72.35-.72,1.2.3,1.2.72,1.2S309.93,386.77,309.93,385.93Z" style="fill:#263238"></path><path d="M312.8,386h1.51v.67H312.8Z" style="fill:#263238"></path><path d="M317.73,384.06v3.73h-.86v-3h-.75v-.7Z" style="fill:#263238"></path><path d="M321.16,387.09v.7h-2.81v-.56l1.43-1.36c.33-.31.39-.5.39-.68s-.2-.47-.59-.47a.93.93,0,0,0-.78.38l-.62-.41a1.71,1.71,0,0,1,1.48-.69c.83,0,1.38.43,1.38,1.1a1.5,1.5,0,0,1-.62,1.18l-.86.81Z" style="fill:#263238"></path><path d="M321.49,385.4a.52.52,0,0,1,1,0,.52.52,0,1,1-1,0Zm0,1.91a.52.52,0,0,1,1,0,.52.52,0,0,1-1,0Z" style="fill:#263238"></path><path d="M322.92,385.93c0-1.23.68-1.93,1.59-1.93s1.6.7,1.6,1.93-.68,1.92-1.6,1.92S322.92,387.16,322.92,385.93Zm2.32,0c0-.85-.3-1.2-.73-1.2s-.72.35-.72,1.2.3,1.2.72,1.2S325.24,386.77,325.24,385.93Z" style="fill:#263238"></path><path d="M326.53,385.93c0-1.23.68-1.93,1.6-1.93s1.6.7,1.6,1.93-.68,1.92-1.6,1.92S326.53,387.16,326.53,385.93Zm2.33,0c0-.85-.3-1.2-.73-1.2s-.73.35-.73,1.2.3,1.2.73,1.2S328.86,386.77,328.86,385.93Z" style="fill:#263238"></path><path d="M335.12,385.42c0,.83-.62,1.34-1.62,1.34h-.75v1h-.86v-3.73h1.61C334.5,384.06,335.12,384.58,335.12,385.42Zm-.87,0c0-.41-.27-.65-.8-.65h-.7v1.29h.7C334,386.06,334.25,385.82,334.25,385.42Z" style="fill:#263238"></path><path d="M339.12,387.79v-2.23L338,387.4h-.39l-1.09-1.8v2.19h-.81v-3.73h.71l1.4,2.32,1.37-2.32h.71v3.73Z" style="fill:#263238"></path><path d="M373,402.05v1h-3.89v-.77l2-1.87c.46-.44.54-.7.54-.95,0-.41-.28-.64-.83-.64a1.26,1.26,0,0,0-1.06.51l-.87-.56a2.38,2.38,0,0,1,2-.95c1.15,0,1.91.59,1.91,1.52a2.06,2.06,0,0,1-.86,1.63l-1.18,1.11Z" style="fill:#fff"></path><path d="M373.45,400.45c0-1.7.94-2.66,2.2-2.66s2.21,1,2.21,2.66-.93,2.66-2.21,2.66S373.45,402.15,373.45,400.45Zm3.21,0c0-1.17-.41-1.65-1-1.65s-1,.48-1,1.65.42,1.66,1,1.66S376.66,401.62,376.66,400.45Z" style="fill:#fff"></path><path d="M378.44,400.45c0-1.7.94-2.66,2.2-2.66s2.21,1,2.21,2.66-.93,2.66-2.21,2.66S378.44,402.15,378.44,400.45Zm3.21,0c0-1.17-.41-1.65-1-1.65s-1,.48-1,1.65.42,1.66,1,1.66S381.65,401.62,381.65,400.45Z" style="fill:#fff"></path><path d="M388.22,401.49l.76.7a2.62,2.62,0,0,1-2.12.92,2.67,2.67,0,0,1-2.67-1.84h-.83v-.62h.72a2,2,0,0,1,0-.4h-.72v-.62h.83a2.88,2.88,0,0,1,4.79-.93l-.76.71a1.66,1.66,0,0,0-1.3-.61,1.62,1.62,0,0,0-1.46.83h1.86v.62h-2a2,2,0,0,0,0,.4h2v.62h-1.86a1.62,1.62,0,0,0,1.46.83A1.66,1.66,0,0,0,388.22,401.49Z" style="fill:#fff"></path><path d="M279.28,388.05c-1.72-2.23-6.56-1.14-9.92.44,0,0-2.31.94-3.18,1.45h0l-7.6-1.36a3.16,3.16,0,0,0-1.82.22l-.64.29a.42.42,0,0,0,0,.76l5.5,2.7v.07L255.84,396l-.09.05a5,5,0,0,1-3.57.52l-3-.69a.75.75,0,0,0-.72,1.28l3.3,3.06a1.81,1.81,0,0,0,1.91.36l1.66-.66,8.37-3.46-1.19,4.6a.3.3,0,0,0,.3.37h.38a1.53,1.53,0,0,0,1.31-.7l3.62-6.11,9.88-4.09C279.36,390,279.88,388.93,279.28,388.05Z" style="fill:#455a64"></path><path d="M344.39,394.61c0,.14-10.59.26-23.64.26s-23.64-.12-23.64-.26,10.58-.26,23.64-.26S344.39,394.47,344.39,394.61Z" style="fill:#e0e0e0"></path><path d="M344.21,400.05c0,.15-10.58.26-23.64.26s-23.64-.11-23.64-.26,10.59-.26,23.64-.26S344.21,399.91,344.21,400.05Z" style="fill:#e0e0e0"></path><path d="M318.9,405.49c0,.15-4.88.26-10.89.26s-10.9-.11-10.9-.26,4.88-.26,10.9-.26S318.9,405.35,318.9,405.49Z" style="fill:#e0e0e0"></path><path d="M392.69,386.71c0,.14-6.94.26-15.5.26s-15.5-.12-15.5-.26,6.94-.26,15.5-.26S392.69,386.56,392.69,386.71Z" style="fill:#263238"></path><path d="M275,407.17c0,.14-5.73.26-12.79.26s-12.79-.12-12.79-.26,5.72-.26,12.79-.26S275,407,275,407.17Z" style="fill:#455a64"></path><path d="M288.63,414.22c-.14,0-.26-8.94-.26-20s.12-20,.26-20,.26,8.93.26,20S288.77,414.22,288.63,414.22Z" style="fill:#263238"></path><path d="M335.26,72.26c-1.63-2.11-6.21-1.08-9.4.42,0,0-2.18.89-3,1.37h0l-7.2-1.29a2.91,2.91,0,0,0-1.72.22l-.61.27a.4.4,0,0,0,0,.72l5.22,2.56v.06c-2.93,1.72-5.45,3.18-5.45,3.18l-.08,0a4.7,4.7,0,0,1-3.39.49l-2.79-.65a.79.79,0,0,0-.43,0,.72.72,0,0,0-.25,1.2l3.12,2.9a1.74,1.74,0,0,0,1.82.34l1.57-.62,7.93-3.28-1.12,4.36a.28.28,0,0,0,.27.35h.37a1.45,1.45,0,0,0,1.24-.67l3.43-5.79,9.35-3.86C335.34,74.12,335.83,73.1,335.26,72.26Z" style="fill:#263238"></path><path d="M300.58,89.21v2.27h4v1.6h-4v3.13h-2V87.62h6.49v1.59Z" style="fill:#263238"></path><path d="M306.44,87.62h2v7h4.31v1.62h-6.29Z" style="fill:#263238"></path><path d="M313.85,87.62h2v8.59h-2Z" style="fill:#263238"></path><path d="M323.67,91.78h1.82v3.48A6,6,0,0,1,322,96.35a4.45,4.45,0,1,1,0-8.88,4.6,4.6,0,0,1,3.6,1.49l-1.28,1.17a2.92,2.92,0,0,0-2.22-1,2.75,2.75,0,1,0,0,5.5,3.13,3.13,0,0,0,1.54-.37Z" style="fill:#263238"></path><path d="M335.2,87.62v8.59h-2V92.68h-3.91v3.53h-2V87.62h2V91h3.91V87.62Z" style="fill:#263238"></path><path d="M339,89.24h-2.75V87.62h7.48v1.62H341v7h-2Z" style="fill:#263238"></path><path d="M308.48,102.9c0,.8-.59,1.26-1.77,1.26h-2.16v-4.7h2c1.05,0,1.65.44,1.65,1.2a1.09,1.09,0,0,1-.72,1.07A1.12,1.12,0,0,1,308.48,102.9Zm-3.43-3v1.7h1.5c.75,0,1.18-.29,1.18-.85s-.43-.85-1.18-.85Zm2.93,3c0-.61-.45-.88-1.27-.88h-1.66v1.77h1.66C307.53,103.75,308,103.48,308,102.86Z" style="fill:#263238"></path><path d="M309.2,101.81a2.47,2.47,0,1,1,2.47,2.39A2.37,2.37,0,0,1,309.2,101.81Zm4.44,0a2,2,0,1,0-2,1.94A1.9,1.9,0,0,0,313.64,101.81Z" style="fill:#263238"></path><path d="M314.84,101.81a2.47,2.47,0,1,1,2.47,2.39A2.37,2.37,0,0,1,314.84,101.81Zm4.44,0a2,2,0,1,0-2,1.94A1.9,1.9,0,0,0,319.28,101.81Z" style="fill:#263238"></path><path d="M322.35,102l-1,1v1.24h-.49v-4.7h.49v2.84l2.76-2.84h.57l-2,2.12,2.17,2.58h-.59Z" style="fill:#263238"></path><path d="M325.67,99.46h.5v4.7h-.5Z" style="fill:#263238"></path><path d="M331.63,99.46v4.7h-.41l-3-3.82v3.82h-.5v-4.7h.41l3,3.81V99.46Z" style="fill:#263238"></path><path d="M336.48,101.81H337v1.79a2.61,2.61,0,0,1-1.72.6,2.4,2.4,0,1,1,0-4.79,2.3,2.3,0,0,1,1.75.68l-.31.32a1.89,1.89,0,0,0-1.41-.55,1.95,1.95,0,1,0,0,3.89,2.06,2.06,0,0,0,1.23-.36Z" style="fill:#263238"></path><path d="M409.1,114.21c0,.14-39.32.26-87.81.26s-87.81-.12-87.81-.26,39.31-.26,87.81-.26S409.1,114.06,409.1,114.21Z" style="fill:#e0e0e0"></path><path d="M312.6,147.62H247.94a6.3,6.3,0,0,1-6.3-6.3h0a6.3,6.3,0,0,1,6.3-6.3H312.6a6.3,6.3,0,0,1,6.3,6.3h0A6.3,6.3,0,0,1,312.6,147.62Z" style="fill:#f5f5f5"></path><path d="M312.6,187.57H247.94a6.3,6.3,0,0,1-6.3-6.3h0a6.3,6.3,0,0,1,6.3-6.3H312.6a6.3,6.3,0,0,1,6.3,6.3h0A6.3,6.3,0,0,1,312.6,187.57Z" style="fill:#f5f5f5"></path><path d="M394.3,147.62H335a6.31,6.31,0,0,1-6.31-6.3h0A6.31,6.31,0,0,1,335,135H394.3a6.3,6.3,0,0,1,6.3,6.3h0A6.3,6.3,0,0,1,394.3,147.62Z" style="fill:#f5f5f5"></path><path d="M394.3,188.61H335a6.32,6.32,0,0,1-6.31-6.31h0A6.31,6.31,0,0,1,335,176H394.3a6.3,6.3,0,0,1,6.3,6.3h0A6.31,6.31,0,0,1,394.3,188.61Z" style="fill:#f5f5f5"></path></g><g id="freepik--Plant--inject-3"><g id="freepik--plant--inject-3"><path d="M432.41,430.33c-4.31-5.08-4.88-13.25-4.25-19.88s2.17-13.32,1.13-19.9c-.62-3.9-2.14-7.62-2.65-11.54s.22-8.34,3.25-10.87c3.49-2.91,9-2.22,12.61.51s5.73,7,7.26,11.28c3.38,9.39,4.62,19.79,1.84,29.37s-9.27,18.14-18.82,21" style="fill:#FFC107"></path><path d="M455.3,441.89a8.79,8.79,0,0,1,4.57-5.84c2.44-1.05,5.27-.45,7.76.46s4.95,2.12,7.61,2.28,5.64-1.09,6.44-3.63c.74-2.38-.69-4.93-2.49-6.66a15.72,15.72,0,0,0-25.76,6.18" style="fill:#FFC107"></path><g style="opacity:0.30000000000000004"><path d="M455.3,441.89a8.79,8.79,0,0,1,4.57-5.84c2.44-1.05,5.27-.45,7.76.46s4.95,2.12,7.61,2.28,5.64-1.09,6.44-3.63c.74-2.38-.69-4.93-2.49-6.66a15.72,15.72,0,0,0-25.76,6.18"></path></g><path d="M434.28,452.55c-3.89-3.7-3.7-10.14-1.76-15.14s6.18-8.85,10.92-11.38a34.56,34.56,0,0,1,30.11-1A14.34,14.34,0,0,0,462,431.84c-2.13,3.54-2.6,7.84-4.37,11.58a18.23,18.23,0,0,1-23.34,9.13" style="fill:#FFC107"></path><path d="M430.34,472.06a2.9,2.9,0,0,1,0-.58c0-.39,0-1,0-1.68.05-1.46.19-3.57.51-6.17a81.59,81.59,0,0,1,1.64-9,41.72,41.72,0,0,1,4.12-10.46,43.46,43.46,0,0,1,13.81-14.86c1.08-.74,2.12-1.3,3-1.83s1.72-.87,2.38-1.18l1.56-.65a3.13,3.13,0,0,1,.55-.19,2.34,2.34,0,0,1-.51.28l-1.52.72c-.64.34-1.43.76-2.33,1.26s-1.91,1.12-3,1.87A44.66,44.66,0,0,0,437,444.38c-3.95,6.91-5,14.19-5.84,19.3-.36,2.57-.55,4.67-.65,6.13,0,.68-.08,1.24-.11,1.67A2.45,2.45,0,0,1,430.34,472.06Z" style="fill:#263238"></path><path d="M392.89,416.24c-8,4.82-7.94,9.19-6.61,13.33s6.22,7,10.28,5.45c2.29-.87,3.95-2.87,5.37-4.87s2.75-4.15,4.74-5.58,4.87-2,6.87-.57" style="fill:#FFC107"></path><g style="opacity:0.30000000000000004"><path d="M392.89,416.24c-8,4.82-7.94,9.19-6.61,13.33s6.22,7,10.28,5.45c2.29-.87,3.95-2.87,5.37-4.87s2.75-4.15,4.74-5.58,4.87-2,6.87-.57"></path></g><path d="M386.93,421.52c2.08-2.88,7.23-3.72,10.48-2.28s5.64,4.29,7.77,7.13,4.2,5.85,7.16,7.83,7.08,2.7,10,.71a8.62,8.62,0,0,0,3.4-5.9,19.64,19.64,0,0,0-.46-6.95c-.71-3.34-1.86-6.84-4.53-9-3-2.37-7.12-2.48-10.93-2.36-4.36.15-8.8.48-12.89,2s-8.28,4.78-10,8.79" style="fill:#FFC107"></path><path d="M423.43,471.66a6.4,6.4,0,0,1-.06-.69c0-.5,0-1.16-.08-2-.05-1.77-.13-4.24-.23-7.28s-.23-6.73-.45-10.78-.53-8.51-1.15-13.15a42.11,42.11,0,0,0-1.32-6.67,34.53,34.53,0,0,0-2.43-5.84,31.86,31.86,0,0,0-6.43-8.53,24.81,24.81,0,0,0-5.95-4.07,17,17,0,0,0-1.8-.79,5.75,5.75,0,0,1-.64-.28,3.17,3.17,0,0,1,.67.19,14.32,14.32,0,0,1,1.85.71,23.81,23.81,0,0,1,6.1,4,31.2,31.2,0,0,1,6.59,8.57,34.62,34.62,0,0,1,2.49,5.9,41.57,41.57,0,0,1,1.34,6.75c.62,4.66.91,9.13,1.12,13.19s.29,7.72.35,10.79.08,5.57.08,7.28c0,.83,0,1.49,0,2A3.45,3.45,0,0,1,423.43,471.66Z" style="fill:#263238"></path><path d="M427,471.66a1.33,1.33,0,0,1-.08-.23c-.06-.17-.12-.39-.21-.67a25.89,25.89,0,0,1-.62-2.61,44.74,44.74,0,0,1-.62-9.87,59.42,59.42,0,0,1,2.39-14.47c1.6-5.29,3.88-10.92,5.88-16.95a74.18,74.18,0,0,0,3.73-17.45,120.2,120.2,0,0,0,.33-14.61c-.13-4.17-.34-7.54-.47-9.86-.07-1.14-.11-2-.15-2.68,0-.29,0-.52,0-.7a.87.87,0,0,1,0-.24.89.89,0,0,1,0,.23c0,.19,0,.42.08.7.05.65.13,1.54.23,2.67.19,2.33.45,5.69.63,9.87a113.7,113.7,0,0,1-.24,14.66,73.3,73.3,0,0,1-3.7,17.56c-2,6.05-4.3,11.67-5.92,16.93a60.34,60.34,0,0,0-2.47,14.35,46.79,46.79,0,0,0,.46,9.82c.2,1.15.38,2,.53,2.63.07.28.12.5.16.68A.61.61,0,0,1,427,471.66Z" style="fill:#263238"></path></g></g><g id="freepik--Suitcase--inject-3"><path d="M132.76,347h-31a3.44,3.44,0,0,1-3.44-3.44h0a3.44,3.44,0,0,1,3.44-3.45h31a3.44,3.44,0,0,1,3.44,3.45h0A3.44,3.44,0,0,1,132.76,347Z" style="fill:#263238"></path><rect x="74.85" y="345.17" width="71.86" height="114.5" rx="8.96" style="fill:#FFC107"></rect><g style="opacity:0.30000000000000004"><rect x="74.85" y="345.17" width="71.86" height="114.5" rx="8.96"></rect></g><rect x="91.91" y="345.17" width="71.86" height="114.5" rx="8.96" style="fill:#FFC107"></rect><path d="M163.16,440.53c0,.14-16,.26-35.76.26s-35.77-.12-35.77-.26,16-.26,35.77-.26S163.16,440.39,163.16,440.53Z" style="fill:#263238"></path><path d="M163.16,424.75c0,.14-16,.26-35.76.26s-35.77-.12-35.77-.26,16-.26,35.77-.26S163.16,424.61,163.16,424.75Z" style="fill:#263238"></path><path d="M163.16,409c0,.14-16,.26-35.76.26s-35.77-.12-35.77-.26,16-.26,35.77-.26S163.16,408.82,163.16,409Z" style="fill:#263238"></path><path d="M163.16,393.19c0,.14-16,.26-35.76.26s-35.77-.12-35.77-.26,16-.26,35.77-.26S163.16,393,163.16,393.19Z" style="fill:#263238"></path><path d="M163.16,377.4c0,.15-16,.26-35.76.26s-35.77-.11-35.77-.26,16-.26,35.77-.26S163.16,377.26,163.16,377.4Z" style="fill:#263238"></path><path d="M163.16,361.62c0,.15-16,.26-35.76.26s-35.77-.11-35.77-.26,16-.26,35.77-.26S163.16,361.48,163.16,361.62Z" style="fill:#263238"></path><path d="M151.85,465.87a6.2,6.2,0,1,1-6.2-6.2A6.19,6.19,0,0,1,151.85,465.87Z" style="fill:#263238"></path><path d="M156.17,465.87a6.2,6.2,0,1,1-6.2-6.2A6.2,6.2,0,0,1,156.17,465.87Z" style="fill:#455a64"></path><path d="M102.54,465.87a6.2,6.2,0,1,1-6.2-6.2A6.19,6.19,0,0,1,102.54,465.87Z" style="fill:#263238"></path><path d="M106.86,465.87a6.2,6.2,0,1,1-6.2-6.2A6.2,6.2,0,0,1,106.86,465.87Z" style="fill:#455a64"></path><rect x="79.07" y="377.4" width="7.69" height="40.9" rx="3.84" style="fill:#263238"></rect><path d="M84.4,458.64a1.16,1.16,0,0,1-.25-.18l-.69-.57a12,12,0,0,1-2.13-2.72c-1.57-2.61-2.5-7-2.47-12.36.18-10.71.6-25.48,1-41.8s.9-31.07,1.21-41.8a37.31,37.31,0,0,1,.64-7.21,10.43,10.43,0,0,1,2.44-4.87A7.16,7.16,0,0,1,87,345.19a4.51,4.51,0,0,1,1.18-.26s-.41.08-1.14.36a7.14,7.14,0,0,0-2.74,2,10.32,10.32,0,0,0-2.31,4.8,38.41,38.41,0,0,0-.55,7.15c-.27,10.73-.64,25.49-1.06,41.8s-.88,31.06-1.18,41.79c-.08,5.33.79,9.67,2.28,12.26A13.37,13.37,0,0,0,84.4,458.64Z" style="fill:#263238"></path></g><g id="freepik--Character--inject-3"><path d="M207.55,268.63l-13.66,8.85-1.24,13.8s4,1.87,9.91-3.49,13.57-16.22,13.57-16.22Z" style="fill:#ffbe9d"></path><polygon points="206.94 274.29 202.47 251.61 190.53 256.33 193.58 286.21 206.94 274.29" style="fill:#ffbe9d"></polygon><path d="M239.28,245.58a1.48,1.48,0,0,0-1.1-.94L229.6,243a2.7,2.7,0,0,0-2.14.53l-25.9,20.38,1.06,1.18,9.16,2.79L239.43,246Z" style="fill:#263238"></path><path d="M232.32,247a.62.62,0,1,0,.3-.69A.55.55,0,0,0,232.32,247Z" style="fill:#fff"></path><path d="M239.43,246a11.74,11.74,0,0,1-1.69-.23l-4.57-.8-3.16-.58a1.8,1.8,0,0,0-1.52.31L227,245.87l-6.62,5.22c-4.71,3.7-9,7-12.1,9.4l-3.7,2.81a10.76,10.76,0,0,1-1.4,1,9.52,9.52,0,0,1,1.27-1.13l3.6-2.94c3.06-2.45,7.3-5.82,12-9.52l6.65-5.19,1.5-1.16a2.24,2.24,0,0,1,1.87-.38l3.14.65,4.55,1A9.83,9.83,0,0,1,239.43,246Z" style="fill:#455a64"></path><path d="M227.16,252.25s-.68-.38-1.76,1.48-4.32,7.16-4.32,7.16L218,257.56l-5-1s-1.38.61-.79,1.4a18.13,18.13,0,0,0,3.43,2.35l1.15,4L211.38,259s-2.33-.17-2.15,1.35,3.12,7.07,3.12,7.07l-3.13-1.34-3-3.61s-1.19-.34-1.1.8,2.85,6.1,2.85,6.1l4,4s2.69.68,3.21,0a9.86,9.86,0,0,0,.95-1.77s1.52.1,2-.49a4.42,4.42,0,0,0,.69-1.71s2.06,1.13,2.74,0a14.64,14.64,0,0,0,1.38-4.63c.09-1,4.21-9.34,4.21-9.64S228.73,252.14,227.16,252.25Z" style="fill:#ffbe9d"></path><path d="M215.34,273.41a2.93,2.93,0,0,1-1.39,0,8.9,8.9,0,0,1-3.12-1.22,8.7,8.7,0,0,1-2.45-2.29,2.88,2.88,0,0,1-.64-1.23,18.18,18.18,0,0,0,3.37,3.08A19.12,19.12,0,0,0,215.34,273.41Z" style="fill:#eb996e"></path><path d="M214.79,271.29c-.11.09-.81-.65-1.47-1.71s-1-2-.88-2.07.68.77,1.32,1.8S214.91,271.2,214.79,271.29Z" style="fill:#eb996e"></path><path d="M218.73,268c-.11.09-.81-.64-1.39-1.72a3.86,3.86,0,0,1-.69-2.1c.14-.05.58.81,1.14,1.85S218.85,267.91,218.73,268Z" style="fill:#eb996e"></path><path d="M222.53,265.56a13.1,13.1,0,0,1-.76-2.3A13.44,13.44,0,0,1,221,261a5.59,5.59,0,0,1,1.56,4.58Z" style="fill:#eb996e"></path><path d="M162.1,161.37a12.63,12.63,0,0,1,23.42-2.81c2.23,4.22,2.19,9.84,5.9,12.86,2.54,2.07,6.23,2.3,8.71,4.44,5.25,4.54,2.21,14.61,7.78,18.75a28.7,28.7,0,0,1-12,5.78,7.82,7.82,0,0,0-2.16-4c.94,2.55-.47,5.49-2.64,7.13s-4.93,2.24-7.6,2.71c-6.44,1.16-13.11,1.8-19.5.4s-12.52-5.15-15.53-11c-.77-1.47-1.36-3.1-2.59-4.21s-3.19-1.6-4.84-2.33a12.57,12.57,0,0,1-7.25-11.91c4.23-.27,7.14-4.35,8.84-8.23s3.09-8.27,6.57-10.69a9.3,9.3,0,0,1,14,4.33" style="fill:#263238"></path><path d="M152.11,170.66l-.18-3.56,21.26-4.73c6.57-.9,13.91,5.49,14.53,12.09.69,7.34,1.25,16.33.55,21.84-1.41,11.09-9.82,12.75-9.82,12.75l.29,13.49-24.36-.87Z" style="fill:#ffbe9d"></path><path d="M184.79,182.65a1.41,1.41,0,0,1-1.32,1.47,1.35,1.35,0,0,1-1.5-1.23,1.41,1.41,0,0,1,1.32-1.47A1.35,1.35,0,0,1,184.79,182.65Z" style="fill:#263238"></path><path d="M185.53,179.22c-.17.19-1.26-.57-2.78-.52s-2.62.85-2.79.67.08-.42.56-.79a3.82,3.82,0,0,1,2.22-.76,3.72,3.72,0,0,1,2.23.64C185.45,178.81,185.62,179.14,185.53,179.22Z" style="fill:#263238"></path><path d="M170.61,183.3a1.41,1.41,0,0,1-1.32,1.47,1.35,1.35,0,0,1-1.5-1.23,1.43,1.43,0,0,1,1.32-1.47A1.36,1.36,0,0,1,170.61,183.3Z" style="fill:#263238"></path><path d="M170.58,180c-.17.19-1.27-.57-2.79-.52s-2.61.85-2.79.67.09-.42.56-.79a3.85,3.85,0,0,1,2.23-.76,3.69,3.69,0,0,1,2.22.64C170.49,179.56,170.66,179.88,170.58,180Z" style="fill:#263238"></path><path d="M176.45,191.09a9.89,9.89,0,0,1,2.46-.52c.39-.06.76-.15.81-.41a1.94,1.94,0,0,0-.29-1.15c-.4-.93-.81-1.9-1.24-2.92-1.73-4.17-3-7.6-2.83-7.66s1.71,3.25,3.44,7.41c.41,1,.81,2,1.19,2.95a2.25,2.25,0,0,1,.25,1.52,1,1,0,0,1-.62.58,2.57,2.57,0,0,1-.66.12A10.35,10.35,0,0,1,176.45,191.09Z" style="fill:#263238"></path><path d="M178.44,209.08a29.21,29.21,0,0,1-15.27-3.49s4,7.61,15.35,6.24Z" style="fill:#eb996e"></path><path d="M175.92,194.78a2.74,2.74,0,0,0-2.49-.95,2.56,2.56,0,0,0-1.7,1,1.58,1.58,0,0,0-.06,1.81,1.83,1.83,0,0,0,2,.45,5.87,5.87,0,0,0,1.91-1.22,1.71,1.71,0,0,0,.42-.47.51.51,0,0,0,0-.57" style="fill:#eb996e"></path><path d="M172,192.28c.24,0,.3,1.63,1.75,2.76s3.2.89,3.22,1.12-.38.34-1.12.38a4.06,4.06,0,0,1-2.69-.85,3.52,3.52,0,0,1-1.36-2.31C171.72,192.69,171.89,192.27,172,192.28Z" style="fill:#263238"></path><path d="M170.79,175.66c-.14.42-1.67.27-3.45.54s-3.21.8-3.45.44c-.12-.18.12-.57.69-1a5.79,5.79,0,0,1,2.55-1,5.86,5.86,0,0,1,2.71.23C170.5,175.15,170.84,175.46,170.79,175.66Z" style="fill:#263238"></path><path d="M185.33,174c-.26.35-1.32,0-2.58.05s-2.32.31-2.58-.05c-.11-.17,0-.52.5-.86a3.68,3.68,0,0,1,4.15,0C185.28,173.48,185.44,173.83,185.33,174Z" style="fill:#263238"></path><path d="M172.86,162.84a11.75,11.75,0,0,1-8,10.35c-1.76.56-4,1-4.55,2.73s1.1,3.5,1.91,5.24a6,6,0,0,1-1.14,6.54c-.93,1-2.18,1.58-3.06,2.58a5.9,5.9,0,0,0-1.23,5,8.46,8.46,0,0,0,2.63,4.52c-4.17.24-8.75-1.88-10.11-5.83-.81-2.36-.39-4.93-.06-7.4a92.65,92.65,0,0,0,.69-17,4.48,4.48,0,0,1,.45-2.79,4.37,4.37,0,0,1,2.41-1.41,140.1,140.1,0,0,1,18-4.31" style="fill:#263238"></path><path d="M170.39,161.24a23.23,23.23,0,0,0,4.1,5.91,7.85,7.85,0,0,0,6.57,2.33c-.43-.72-.86-1.44-1.28-2.16a34.66,34.66,0,0,0,11.89,8c-2.2-4.14-4.48-8.38-8-11.48s-8.62-4.86-13-3.21" style="fill:#263238"></path><polygon points="180.1 218.18 152.92 216.09 157.48 230.49 180.74 238.24 183.83 233.02 180.1 218.18" style="fill:#ffbe9d"></polygon><path d="M128.5,241.56a23.06,23.06,0,0,0-30,19.45c-.72,6.6,1.42,13.32.29,19.86-.83,4.82-3.38,9.17-4.51,13.93-2.44,10.25,2.44,21.56,11,27.66s20.27,7.11,30.19,3.57l10.2-16-6.76-61.48-10.43-7" style="fill:#455a64"></path><path d="M144.79,285.1s-2.33,12.49-.93,14.38a5.73,5.73,0,0,0,3.71,2.12l45.08-3.49,1.5-24.81s4.54-17,2.45-24.21-11.06-29.28-11.06-29.28l-6.91-2.07s0,7.21-2.54,7.67-14.83.54-20.85-7.23l-2.32-2.09-12.86,9.37L146,276.27Z" style="fill:#FFC107"></path><path d="M124.46,240.67s8.4-12.61,11.76-16.17c5.29-5.6,12.76-7.88,14.55-6.84,2.46,1.42,14.73,14.19,15.71,22.81s0,30,0,30l-10.37,3.13L156,263.27l-1.72-25.41s-4.25-12-14.21-12.4c0,0-10.41,8.75-10.78,17.17Z" style="fill:#455a64"></path><path d="M148.63,288.26l-20.79,19,5.49,7.33s25.29-16.12,27.93-32.19Z" style="fill:#455a64"></path><path d="M122.33,328.06a18.18,18.18,0,0,1-3-2.07,24.58,24.58,0,0,1-6.18-7.75,28,28,0,0,1-2.37-6.46,39,39,0,0,1-.84-7.86c-.1-5.57.81-11.64,1.88-17.94a115.45,115.45,0,0,0,2.1-17.84,46.06,46.06,0,0,0-.55-7.8c-.4-2.42-.91-4.67-1.16-6.76a19.27,19.27,0,0,1,0-5.68,12.29,12.29,0,0,1,1.36-4.06,8.23,8.23,0,0,1,1.67-2.14,4.77,4.77,0,0,1,.74-.58,10.22,10.22,0,0,0-2.23,2.81,12.61,12.61,0,0,0-1.26,4,19.88,19.88,0,0,0,.09,5.58c.28,2.07.8,4.3,1.22,6.74a44.72,44.72,0,0,1,.61,7.87,111.88,111.88,0,0,1-2.06,17.93,101.31,101.31,0,0,0-1.92,17.85,39.38,39.38,0,0,0,.78,7.76,27.8,27.8,0,0,0,2.28,6.4,25.26,25.26,0,0,0,6,7.76c.43.39.85.71,1.2,1s.66.51.91.68l.57.41A1.5,1.5,0,0,1,122.33,328.06Z" style="fill:#263238"></path><path d="M112.66,280.2a48.86,48.86,0,0,1-7.19.26,48.66,48.66,0,0,1-7.18-.26,50.37,50.37,0,0,1,7.18-.26A50.58,50.58,0,0,1,112.66,280.2Z" style="fill:#263238"></path><path d="M185.54,219.81s8.1,3.63,10.88,8.21,10.32,30.83,10.32,30.83l-10.6,2.09Z" style="fill:#FFC107"></path><path d="M191.41,257.68s-2.44-24-3.46-25.54-2.67-13.24-7.85-14c0,0,5.46,1.26,8.61,3.28s6.57,12.92,6.57,12.92l2,19Z" style="fill:#455a64"></path><path d="M126.8,236.67a6.28,6.28,0,0,0-1.49-1.51,4.48,4.48,0,0,0-2.15-.66,5.06,5.06,0,0,0-2.67.68,8.15,8.15,0,0,0-3.28,3.85c-.55,1.23-.76,2.05-.84,2a5.75,5.75,0,0,1,.5-2.17,7.83,7.83,0,0,1,3.37-4.17,5.32,5.32,0,0,1,2.94-.7,4.61,4.61,0,0,1,2.33.83A2.79,2.79,0,0,1,126.8,236.67Z" style="fill:#263238"></path><path d="M154.27,237.86a12.17,12.17,0,0,1-.64-1.35l-.33-.74c-.14-.27-.29-.55-.46-.85s-.35-.63-.53-1l-.7-1a17.76,17.76,0,0,0-4.36-4.42,15.55,15.55,0,0,0-7.2-2.78h0a8.82,8.82,0,0,0-5.42,1.65l.06,0c-.07.07-.13.15-.2.23a110.05,110.05,0,0,0-10.72,15c-1.2,2-2.13,3.71-2.76,4.87l-.72,1.34a2,2,0,0,1-.29.46,2.44,2.44,0,0,1,.19-.5c.14-.32.35-.8.64-1.39.58-1.2,1.45-2.91,2.63-5a98.69,98.69,0,0,1,10.64-15.17l.19-.23,0,0,0,0a13.64,13.64,0,0,1,2.8-1.36,6.64,6.64,0,0,1,3-.36h0a15.64,15.64,0,0,1,7.43,2.93,17.28,17.28,0,0,1,4.38,4.59l.68,1.07c.18.35.34.69.5,1l.44.87.29.76A9.2,9.2,0,0,1,154.27,237.86Z" style="fill:#263238"></path><path d="M145.51,297.48a13.49,13.49,0,0,1-2.38,1.82,40.75,40.75,0,0,1-13.27,5.64,12.79,12.79,0,0,1-3,.45,25.5,25.5,0,0,1,2.87-.81A53.05,53.05,0,0,0,142.93,299,23.81,23.81,0,0,1,145.51,297.48Z" style="fill:#263238"></path><polygon points="265.32 402.33 258.99 463.75 239.66 463.49 238.27 398.58 265.32 402.33" style="fill:#ffbe9d"></polygon><path d="M259.55,457.9v1.29s21.77,8.81,22,12.94l-43.27-.33.7-14.4A24.75,24.75,0,0,0,259.55,457.9Z" style="fill:#455a64"></path><g style="opacity:0.6000000000000001"><path d="M243.32,462a1.77,1.77,0,0,0-1.24,2,1.7,1.7,0,0,0,2,1.24,1.87,1.87,0,0,0,1.3-2.13,1.77,1.77,0,0,0-2.2-1.07" style="fill:#fff"></path></g><g style="opacity:0.6000000000000001"><path d="M238.27,471.8l.17-3.47,41.41,1.59s1.92.86,1.69,2.21Z" style="fill:#fff"></path></g><path d="M259.7,459.31c0,.21-1.06.3-2.11,1s-1.6,1.55-1.8,1.47.13-1.31,1.41-2.1S259.75,459.11,259.7,459.31Z" style="fill:#263238"></path><path d="M264.23,461.22c0,.21-.87.56-1.6,1.45s-.94,1.83-1.15,1.82-.33-1.21.59-2.3S264.23,461,264.23,461.22Z" style="fill:#263238"></path><path d="M266.76,466.67c-.19.05-.47-1,.08-2.16s1.54-1.61,1.63-1.43-.53.79-1,1.74S267,466.65,266.76,466.67Z" style="fill:#263238"></path><polygon points="271.03 417.77 300.43 451.25 286.62 464.78 251.74 434.31 271.03 417.77" style="fill:#ffbe9d"></polygon><path d="M296.67,446.73l.92.91s21.59-9.24,24.68-6.49l-30.73,30.47L281.82,461C288.49,458.57,293.5,454.07,296.67,446.73Z" style="fill:#455a64"></path><g style="opacity:0.6000000000000001"><path d="M288.17,461.17a1.77,1.77,0,0,0,.55,2.29,1.7,1.7,0,0,0,2.28-.53,1.86,1.86,0,0,0-.6-2.42,1.75,1.75,0,0,0-2.3.81" style="fill:#fff"></path></g><g style="opacity:0.6000000000000001"><path d="M291.54,471.62l-2.34-2.56,30.31-28.26s2-.76,2.76.35Z" style="fill:#fff"></path></g><path d="M297.78,447.62c.14.15-.54,1-.8,2.18s0,2.23-.22,2.31-.84-1-.5-2.48S297.68,447.45,297.78,447.62Z" style="fill:#263238"></path><path d="M302.32,445.75c.18.11-.21,1-.09,2.15s.63,2,.48,2.1-1.1-.61-1.22-2S302.18,445.61,302.32,445.75Z" style="fill:#263238"></path><path d="M308,447.8c-.11.16-1.06-.38-1.49-1.58s-.05-2.23.14-2.17.19.93.56,1.92S308.11,447.63,308,447.8Z" style="fill:#263238"></path><path d="M145.83,226.15a5.51,5.51,0,0,0-7.33.39c-3.68,3.68-9,9.86-9.18,14.87-.25,7.67-1.48,28-1.48,28l28.2-1s0-27-2.47-33.15C152.17,231.73,148.64,228.39,145.83,226.15Z" style="fill:#FFC107"></path><path d="M131.09,269.37s-1.61,15.51.18,22.63c1.85,7.37,5.5,7.26,8.57,7.48s51.54-25.19,51.54-25.19L186,264.74l-36.49,11,.33-7.13Z" style="fill:#ffbe9d"></path><path d="M185.7,265l8.75-10.95,7.9-1.83,9.62,1.06a2,2,0,0,1-1.15,2.21l3.37.19a1.93,1.93,0,0,1-1.25,2.51l2.4.42a3.45,3.45,0,0,1-3.75,2,52.59,52.59,0,0,0-7.13-.48l-4.71,2.6,7-.29,5.11,1s.67,1.3-.48,1.61a32.85,32.85,0,0,1-5.59,0l-6.74,1.76s-1.44,4.33-2.31,5.29-5.68,2.21-5.68,2.21Z" style="fill:#ffbe9d"></path><path d="M214.19,255.71a12.51,12.51,0,0,1-2.62-.09c-1.61-.13-3.83-.34-6.28-.6l-2.35-.27h.1c-1.83.51-3.41.94-4.54,1.22a7.65,7.65,0,0,1-1.83.36,8.43,8.43,0,0,1,1.74-.67c1.11-.36,2.67-.85,4.49-1.4H203l2.36.25c2.44.26,4.66.53,6.26.75A13.4,13.4,0,0,1,214.19,255.71Z" style="fill:#eb996e"></path><path d="M214.77,258.54a11.25,11.25,0,0,1-2.37-.16c-1.46-.17-3.47-.43-5.68-.76l-2.2-.33h.13a41,41,0,0,1-5.54,2,39,39,0,0,1,5.35-2.42l.06,0h.07l2.21.31c2.21.32,4.21.64,5.65.9A10.86,10.86,0,0,1,214.77,258.54Z" style="fill:#eb996e"></path><path d="M191.08,274.29a8,8,0,0,1,.77-.26c.51-.16,1.27-.39,2.23-.74.47-.18,1-.38,1.57-.65a4.23,4.23,0,0,0,.82-.47,2.25,2.25,0,0,0,.6-.8,34.76,34.76,0,0,0,1.84-4.64l0-.08.09,0,6.73-1.79h.07c1.14.07,2.36.12,3.62.12a10.5,10.5,0,0,0,1.87-.13.61.61,0,0,0,.51-.47,1.39,1.39,0,0,0-.16-.83l.16.12-5.1-.95h.05l-7,.3-1.08,0,.95-.52,4.71-2.6.06,0h.06c1.79,0,3.66.08,5.57.27.53.06,1.05.12,1.57.21a3.44,3.44,0,0,0,1.43,0,3.39,3.39,0,0,0,2.08-1.79l.19.35-2.41-.42-.88-.16.83-.33a1.89,1.89,0,0,0,1-.87,1.68,1.68,0,0,0,.07-1.3l.22.16-3.37-.2-.92-.05.83-.42a2,2,0,0,0,.87-.81,1.69,1.69,0,0,0,.16-1.12l.21.18-9.63-1.09h.08l-7.91,1.79.1-.06-6.47,8-1.77,2.14-.47.55c-.11.12-.17.18-.18.17l.14-.21.43-.58L188,262c1.53-1.93,3.68-4.68,6.35-8.08l0,0,.06,0L202.3,252h.07l9.63,1h.17l0,.17a2.14,2.14,0,0,1-.19,1.47,2.44,2.44,0,0,1-1.09,1l-.1-.47,3.37.19h.17l0,.15a2.23,2.23,0,0,1-.08,1.72,2.43,2.43,0,0,1-1.31,1.12L213,258l2.41.43.33.05-.14.3a3.85,3.85,0,0,1-2.42,2.09,4,4,0,0,1-1.65,0c-.5-.08-1-.15-1.53-.2-1.88-.19-3.75-.25-5.52-.27l.13,0L199.87,263l-.13-.47,7-.28h.06l5.1,1,.12,0,0,.1a2,2,0,0,1,.2,1.13,1.07,1.07,0,0,1-.85.81,9.72,9.72,0,0,1-2,.14c-1.28,0-2.49-.08-3.65-.16h.06L199.12,267l.11-.11a31.54,31.54,0,0,1-1.93,4.66,2.51,2.51,0,0,1-.68.87,5.46,5.46,0,0,1-.88.48,16.86,16.86,0,0,1-1.6.61c-1,.32-1.74.53-2.26.66l-.59.14C191.15,274.29,191.09,274.3,191.08,274.29Z" style="fill:#eb996e"></path><path d="M127.35,269.37a1.47,1.47,0,0,1,.47-.06l1.37-.09,5.1-.24,17.49-.67-.24.24c.06-2.45,0-5.06-.12-7.75-.22-4.44-.61-8.66-.85-12.51-.14-1.93-.19-3.76-.35-5.46a32,32,0,0,0-.72-4.68,17.66,17.66,0,0,0-2.74-6.24c-.95-1.31-1.65-1.9-1.61-1.93a2.28,2.28,0,0,1,.51.41,11.51,11.51,0,0,1,1.27,1.4,17.23,17.23,0,0,1,2.92,6.27,31,31,0,0,1,.8,4.73c.18,1.71.25,3.54.39,5.46.28,3.85.68,8.07.9,12.52.14,2.7.18,5.33.1,7.8v.24h-.23l-17.5.49-5.11.09h-1.37Z" style="fill:#263238"></path><path d="M147.57,301.6S134.8,319,134.8,326s.27,17.41,8.58,24.91,109.88,95.25,109.88,95.25L278,424.3l-92.06-93s4.29-7.77,2.41-11a10.3,10.3,0,0,0-4.82-4.29l-.27-17.23Z" style="fill:#263238"></path><path d="M192.65,298.11l2.16,18.37s65.39,33.88,70.66,43.89c2.39,4.54,4.71,45.61,4.71,45.61l-32.24.73-4.17-32.55-17.3-9.35-30.93-31.43L175,299.48Z" style="fill:#263238"></path><path d="M163.16,300.91a4.36,4.36,0,0,1,.3,1.09,22,22,0,0,1,.37,3.05,18.39,18.39,0,0,1-.33,4.57,14,14,0,0,1-2.2,5.18,10.87,10.87,0,0,1-4.28,3.65,9.59,9.59,0,0,1-4.53.82,8,8,0,0,1-3-.82,4.84,4.84,0,0,1-.71-.44c-.16-.11-.23-.18-.22-.2a9.65,9.65,0,0,0,3.94,1.09,9.36,9.36,0,0,0,4.3-.89,10.6,10.6,0,0,0,4.06-3.51,15.9,15.9,0,0,0,2.59-9.43C163.41,302.5,163.07,300.92,163.16,300.91Z" style="fill:#263238"></path><path d="M188.23,313.36a6.15,6.15,0,0,1-1.69,1.31,19.1,19.1,0,0,1-4.73,2.1,18.84,18.84,0,0,1-5.12.76,6.51,6.51,0,0,1-2.13-.2,37.2,37.2,0,0,0,7.1-1.06A36.44,36.44,0,0,0,188.23,313.36Z" style="fill:#455a64"></path><path d="M186.25,301.05c0-.05.62-.22,1.39.36a1.83,1.83,0,0,1,.71,1.48,1.89,1.89,0,0,1-1.09,1.7,1.78,1.78,0,0,1-2-.45,1.49,1.49,0,0,1,.58-2.38c.25-.08.4,0,.4,0s-.59.15-.87.9a1.09,1.09,0,0,0,.24,1.17,1.36,1.36,0,0,0,1.42.3,1.46,1.46,0,0,0,.82-1.25,1.52,1.52,0,0,0-.47-1.18C186.82,301.13,186.24,301.14,186.25,301.05Z" style="fill:#455a64"></path><path d="M188.36,334.89a17.84,17.84,0,0,1-2.16-1.78,60.27,60.27,0,0,0-5.35-4.06,45.18,45.18,0,0,0-5.83-3.31,23.15,23.15,0,0,1-2.52-1.21,10.81,10.81,0,0,1,2.67.87,34.32,34.32,0,0,1,6,3.21,40.82,40.82,0,0,1,5.3,4.23A12.77,12.77,0,0,1,188.36,334.89Z" style="fill:#455a64"></path><path d="M192.49,322.57a6.74,6.74,0,0,1,2.88-5.91c.11.12-1,1.18-1.74,2.81S192.65,322.59,192.49,322.57Z" style="fill:#455a64"></path><path d="M266,451a10.74,10.74,0,0,1-1.7-1.74c-1-1.12-2.36-2.69-3.83-4.44a4.87,4.87,0,0,0-1.13-1.1,2.09,2.09,0,0,0-1.34-.27,5.5,5.5,0,0,0-2.31.95,5,5,0,0,1-2.19,1.08c0-.05.8-.45,2-1.38A5.5,5.5,0,0,1,257.9,443a2.61,2.61,0,0,1,1.66.31,5.18,5.18,0,0,1,1.26,1.21c1.47,1.75,2.78,3.35,3.71,4.53A11.38,11.38,0,0,1,266,451Z" style="fill:#455a64"></path><path d="M253.26,446.14s.14-.15.42-.41l1.27-1.15,4.89-4.39,18.05-16v.29l-46.71-46.57-33.55-33.56L194,340.64l-1.77-1.78c-.58-.59-1.16-1.17-1.78-1.69a10.12,10.12,0,0,1-3.09-3.67,4,4,0,0,1-.19-2.36c.18-.78.51-1.43.72-2.13a23.46,23.46,0,0,0,1-4.12,7.82,7.82,0,0,0-.3-3.87,11.18,11.18,0,0,0-2.25-2.88,10.47,10.47,0,0,0-2.78-1.93l-.09,0v-.09c-.06-5.24-.1-9.38-.13-12.24,0-1.4,0-2.49,0-3.25,0-.35,0-.62,0-.83s0-.28,0-.28a1,1,0,0,1,0,.28c0,.21,0,.48,0,.83,0,.76,0,1.85.09,3.25.06,2.85.15,7,.26,12.23l-.09-.13a10.79,10.79,0,0,1,2.9,2,11.29,11.29,0,0,1,2.34,3,8,8,0,0,1,.35,4.05,23.11,23.11,0,0,1-1,4.19c-.21.7-.54,1.4-.7,2.09a3.65,3.65,0,0,0,.18,2.14,9.9,9.9,0,0,0,3,3.49,23.72,23.72,0,0,1,1.79,1.69l1.78,1.78,3.68,3.65c10,9.95,21.42,21.38,33.6,33.52l46.63,46.67.14.15-.15.13L260,440.35l-5,4.31-1.3,1.11Z" style="fill:#455a64"></path><path d="M267.76,447.35a18.76,18.76,0,0,1-3-4.56,18.53,18.53,0,0,1-2-5.05c.14-.06,1.1,2.17,2.47,4.81S267.89,447.27,267.76,447.35Z" style="fill:#455a64"></path><path d="M274.13,442.83a22.51,22.51,0,0,1-7.08-9c.13-.07,1.41,2.16,3.37,4.63S274.23,442.72,274.13,442.83Z" style="fill:#455a64"></path><path d="M278.15,438.39a37.21,37.21,0,0,1-3.34-4.1,36.42,36.42,0,0,1-3.15-4.26,21.65,21.65,0,0,1,3.56,3.94A21.22,21.22,0,0,1,278.15,438.39Z" style="fill:#455a64"></path><path d="M282.35,431a15.55,15.55,0,0,1-3.37-2,15,15,0,0,1-3.06-2.44,14.68,14.68,0,0,1,3.36,2A15.2,15.2,0,0,1,282.35,431Z" style="fill:#455a64"></path><path d="M223.46,372.65c.1.1-4.35,4.19-9.92,9.12s-10.18,8.85-10.27,8.74,4.35-4.19,9.92-9.13S223.37,372.54,223.46,372.65Z" style="fill:#455a64"></path><path d="M222.61,374.38a8.75,8.75,0,0,1-1.17,2,39.61,39.61,0,0,1-3.44,4.29,40.71,40.71,0,0,1-4,3.79,8.64,8.64,0,0,1-1.86,1.32c-.1-.12,2.59-2.32,5.47-5.46S222.47,374.29,222.61,374.38Z" style="fill:#455a64"></path><path d="M165.07,302.58s0,.3-.14.83a13.86,13.86,0,0,1-.75,2.18,18.17,18.17,0,0,1-1.66,3,20.8,20.8,0,0,1-2.75,3.19,20.47,20.47,0,0,1-3.37,2.5,18.08,18.08,0,0,1-3.12,1.43,12.73,12.73,0,0,1-2.23.58,3,3,0,0,1-.84.09c0-.1,1.16-.31,2.94-1a19.44,19.44,0,0,0,3-1.5,21.28,21.28,0,0,0,3.27-2.47,22.18,22.18,0,0,0,2.71-3.07,21.34,21.34,0,0,0,1.71-2.88C164.68,303.71,165,302.55,165.07,302.58Z" style="fill:#455a64"></path><path d="M242.33,361.82a44.62,44.62,0,0,0-5.17,5.73,45.2,45.2,0,0,0-3.64,6.8,7.26,7.26,0,0,1,.61-2.21,22.62,22.62,0,0,1,2.61-4.89,22.2,22.2,0,0,1,3.72-4.11A7.19,7.19,0,0,1,242.33,361.82Z" style="fill:#455a64"></path><path d="M248.91,365.46c0,.16-3.55.81-7.64,2.54s-7.07,3.83-7.16,3.69a8.67,8.67,0,0,1,1.88-1.46,31.57,31.57,0,0,1,5.08-2.71,32.13,32.13,0,0,1,5.48-1.74A9.09,9.09,0,0,1,248.91,365.46Z" style="fill:#455a64"></path></g></svg>